<?xml version="1.0" encoding="UTF-8" standalone="no"?>
<!DOCTYPE svg PUBLIC "-//W3C//DTD SVG 1.1//EN"
 "http://www.w3.org/Graphics/SVG/1.1/DTD/svg11.dtd">
<!-- Generated by graphviz version 2.43.0 (0)
 -->
<!-- Title: com.teragrep.pth_06.planner.MockArchiveQueryProcessor.processBetweenUnixEpochHours Pages: 1 -->
<svg width="644pt" height="422pt"
 viewBox="0.00 0.00 644.00 422.00" xmlns="http://www.w3.org/2000/svg" xmlns:xlink="http://www.w3.org/1999/xlink">
<g id="graph0" class="graph" transform="scale(1 1) rotate(0) translate(4 418)">
<title>com.teragrep.pth_06.planner.MockArchiveQueryProcessor.processBetweenUnixEpochHours</title>
<!-- Node1 -->
<g id="Node000001" class="node">
<title>Node1</title>
<g id="a_Node000001"><a xlink:title=" ">
<polygon fill="#999999" stroke="#666666" points="196,-203.5 0,-203.5 0,-162.5 196,-162.5 196,-203.5"/>
<text text-anchor="start" x="8" y="-191.5" font-family="Helvetica,sans-Serif" font-size="10.00">com.teragrep.pth_06.planner.</text>
<text text-anchor="start" x="8" y="-180.5" font-family="Helvetica,sans-Serif" font-size="10.00">MockArchiveQueryProcessor.process</text>
<text text-anchor="middle" x="98" y="-169.5" font-family="Helvetica,sans-Serif" font-size="10.00">BetweenUnixEpochHours</text>
</a>
</g>
</g>
<!-- Node2 -->
<g id="Node000002" class="node">
<title>Node2</title>
<g id="a_Node000002"><a xlink:href="classcom_1_1teragrep_1_1pth__06_1_1planner_1_1RecordableMockDBRow.html#a97be2d26ebbaabb13ae7b7c05efacf85" target="_top" xlink:title=" ">
<polygon fill="white" stroke="#666666" points="412,-222 232,-222 232,-192 412,-192 412,-222"/>
<text text-anchor="start" x="240" y="-210" font-family="Helvetica,sans-Serif" font-size="10.00">com.teragrep.pth_06.planner.</text>
<text text-anchor="middle" x="322" y="-199" font-family="Helvetica,sans-Serif" font-size="10.00">RecordableMockDBRow.asRecord</text>
</a>
</g>
</g>
<!-- Node1&#45;&gt;Node2 -->
<g id="edge1_Node000001_Node000002" class="edge">
<title>Node1&#45;&gt;Node2</title>
<g id="a_edge1_Node000001_Node000002"><a xlink:title=" ">
<path fill="none" stroke="#63b8ff" d="M196.05,-193.49C204.6,-194.42 213.27,-195.35 221.84,-196.28"/>
<polygon fill="#63b8ff" stroke="#63b8ff" points="221.53,-199.77 231.84,-197.36 222.28,-192.81 221.53,-199.77"/>
</a>
</g>
</g>
<!-- Node12 -->
<g id="Node000012" class="node">
<title>Node12</title>
<g id="a_Node000012"><a xlink:href="interfacecom_1_1teragrep_1_1pth__06_1_1planner_1_1Sliceable.html#abd05bccf06880977e9be05d2b830d2fe" target="_top" xlink:title=" ">
<polygon fill="white" stroke="#666666" points="402,-174 242,-174 242,-144 402,-144 402,-174"/>
<text text-anchor="start" x="250" y="-162" font-family="Helvetica,sans-Serif" font-size="10.00">com.teragrep.pth_06.planner.</text>
<text text-anchor="middle" x="322" y="-151" font-family="Helvetica,sans-Serif" font-size="10.00">Sliceable.slice</text>
</a>
</g>
</g>
<!-- Node1&#45;&gt;Node12 -->
<g id="edge11_Node000001_Node000012" class="edge">
<title>Node1&#45;&gt;Node12</title>
<g id="a_edge11_Node000001_Node000012"><a xlink:title=" ">
<path fill="none" stroke="#63b8ff" d="M196.05,-172.51C207.87,-171.23 219.91,-169.93 231.61,-168.66"/>
<polygon fill="#63b8ff" stroke="#63b8ff" points="232.23,-172.12 241.79,-167.56 231.48,-165.16 232.23,-172.12"/>
</a>
</g>
</g>
<!-- Node3 -->
<g id="Node000003" class="node">
<title>Node3</title>
<g id="a_Node000003"><a xlink:href="interfacecom_1_1teragrep_1_1pth__06_1_1planner_1_1MockDBRow.html#ad44471477954593511cbdb304a0ded76" target="_top" xlink:title=" ">
<polygon fill="white" stroke="#666666" points="622,-414 462,-414 462,-384 622,-384 622,-414"/>
<text text-anchor="start" x="470" y="-402" font-family="Helvetica,sans-Serif" font-size="10.00">com.teragrep.pth_06.planner.</text>
<text text-anchor="middle" x="542" y="-391" font-family="Helvetica,sans-Serif" font-size="10.00">MockDBRow.bucket</text>
</a>
</g>
</g>
<!-- Node2&#45;&gt;Node3 -->
<g id="edge2_Node000002_Node000003" class="edge">
<title>Node2&#45;&gt;Node3</title>
<g id="a_edge2_Node000002_Node000003"><a xlink:title=" ">
<path fill="none" stroke="#63b8ff" d="M329.78,-222.02C345.52,-255.11 387.81,-334.54 448,-375 450.4,-376.61 452.9,-378.12 455.48,-379.52"/>
<polygon fill="#63b8ff" stroke="#63b8ff" points="453.98,-382.69 464.51,-383.92 457.05,-376.39 453.98,-382.69"/>
</a>
</g>
</g>
<!-- Node4 -->
<g id="Node000004" class="node">
<title>Node4</title>
<g id="a_Node000004"><a xlink:href="interfacecom_1_1teragrep_1_1pth__06_1_1planner_1_1MockDBRow.html#a72b0def5bf253cb3babc246462187ead" target="_top" xlink:title=" ">
<polygon fill="white" stroke="#666666" points="622,-366 462,-366 462,-336 622,-336 622,-366"/>
<text text-anchor="start" x="470" y="-354" font-family="Helvetica,sans-Serif" font-size="10.00">com.teragrep.pth_06.planner.</text>
<text text-anchor="middle" x="542" y="-343" font-family="Helvetica,sans-Serif" font-size="10.00">MockDBRow.directory</text>
</a>
</g>
</g>
<!-- Node2&#45;&gt;Node4 -->
<g id="edge3_Node000002_Node000004" class="edge">
<title>Node2&#45;&gt;Node4</title>
<g id="a_edge3_Node000002_Node000004"><a xlink:title=" ">
<path fill="none" stroke="#63b8ff" d="M334.32,-222.07C354.35,-247.65 398.61,-299.45 448,-327 451.25,-328.81 454.64,-330.49 458.12,-332.05"/>
<polygon fill="#63b8ff" stroke="#63b8ff" points="456.93,-335.34 467.51,-335.88 459.57,-328.86 456.93,-335.34"/>
</a>
</g>
</g>
<!-- Node5 -->
<g id="Node000005" class="node">
<title>Node5</title>
<g id="a_Node000005"><a xlink:href="interfacecom_1_1teragrep_1_1pth__06_1_1planner_1_1MockDBRow.html#a74ca25ad9ccc26eca93b3a20d359bd4a" target="_top" xlink:title=" ">
<polygon fill="white" stroke="#666666" points="622,-318 462,-318 462,-288 622,-288 622,-318"/>
<text text-anchor="start" x="470" y="-306" font-family="Helvetica,sans-Serif" font-size="10.00">com.teragrep.pth_06.planner.</text>
<text text-anchor="middle" x="542" y="-295" font-family="Helvetica,sans-Serif" font-size="10.00">MockDBRow.filesize</text>
</a>
</g>
</g>
<!-- Node2&#45;&gt;Node5 -->
<g id="edge4_Node000002_Node000005" class="edge">
<title>Node2&#45;&gt;Node5</title>
<g id="a_edge4_Node000002_Node000005"><a xlink:title=" ">
<path fill="none" stroke="#63b8ff" d="M345.09,-222.2C369.37,-238.29 409.97,-263.48 448,-279 453.11,-281.09 458.46,-283.04 463.9,-284.85"/>
<polygon fill="#63b8ff" stroke="#63b8ff" points="463.15,-288.28 473.74,-287.96 465.26,-281.61 463.15,-288.28"/>
</a>
</g>
</g>
<!-- Node6 -->
<g id="Node000006" class="node">
<title>Node6</title>
<g id="a_Node000006"><a xlink:href="interfacecom_1_1teragrep_1_1pth__06_1_1planner_1_1MockDBRow.html#aa8ad21bb5a8f9b0594938f79c167ea8a" target="_top" xlink:title=" ">
<polygon fill="white" stroke="#666666" points="622,-270 462,-270 462,-240 622,-240 622,-270"/>
<text text-anchor="start" x="470" y="-258" font-family="Helvetica,sans-Serif" font-size="10.00">com.teragrep.pth_06.planner.</text>
<text text-anchor="middle" x="542" y="-247" font-family="Helvetica,sans-Serif" font-size="10.00">MockDBRow.host</text>
</a>
</g>
</g>
<!-- Node2&#45;&gt;Node6 -->
<g id="edge5_Node000002_Node000006" class="edge">
<title>Node2&#45;&gt;Node6</title>
<g id="a_edge5_Node000002_Node000006"><a xlink:title=" ">
<path fill="none" stroke="#63b8ff" d="M391.38,-222.06C414.1,-227.06 439.58,-232.67 462.98,-237.82"/>
<polygon fill="#63b8ff" stroke="#63b8ff" points="462.35,-241.27 472.86,-240 463.85,-234.43 462.35,-241.27"/>
</a>
</g>
</g>
<!-- Node7 -->
<g id="Node000007" class="node">
<title>Node7</title>
<g id="a_Node000007"><a xlink:href="interfacecom_1_1teragrep_1_1pth__06_1_1planner_1_1MockDBRow.html#a0774864816bfa4ed24d7037daa10b3b2" target="_top" xlink:title=" ">
<polygon fill="white" stroke="#666666" points="622,-222 462,-222 462,-192 622,-192 622,-222"/>
<text text-anchor="start" x="470" y="-210" font-family="Helvetica,sans-Serif" font-size="10.00">com.teragrep.pth_06.planner.</text>
<text text-anchor="middle" x="542" y="-199" font-family="Helvetica,sans-Serif" font-size="10.00">MockDBRow.id</text>
</a>
</g>
</g>
<!-- Node2&#45;&gt;Node7 -->
<g id="edge6_Node000002_Node000007" class="edge">
<title>Node2&#45;&gt;Node7</title>
<g id="a_edge6_Node000002_Node000007"><a xlink:title=" ">
<path fill="none" stroke="#63b8ff" d="M412.3,-207C425.29,-207 438.66,-207 451.65,-207"/>
<polygon fill="#63b8ff" stroke="#63b8ff" points="451.97,-210.5 461.97,-207 451.97,-203.5 451.97,-210.5"/>
</a>
</g>
</g>
<!-- Node8 -->
<g id="Node000008" class="node">
<title>Node8</title>
<g id="a_Node000008"><a xlink:href="interfacecom_1_1teragrep_1_1pth__06_1_1planner_1_1MockDBRow.html#abbdec5d031093faa980c5b0e86dbaa7e" target="_top" xlink:title=" ">
<polygon fill="white" stroke="#666666" points="622,-174 462,-174 462,-144 622,-144 622,-174"/>
<text text-anchor="start" x="470" y="-162" font-family="Helvetica,sans-Serif" font-size="10.00">com.teragrep.pth_06.planner.</text>
<text text-anchor="middle" x="542" y="-151" font-family="Helvetica,sans-Serif" font-size="10.00">MockDBRow.logtime</text>
</a>
</g>
</g>
<!-- Node2&#45;&gt;Node8 -->
<g id="edge7_Node000002_Node000008" class="edge">
<title>Node2&#45;&gt;Node8</title>
<g id="a_edge7_Node000002_Node000008"><a xlink:title=" ">
<path fill="none" stroke="#63b8ff" d="M391.38,-191.94C414.1,-186.94 439.58,-181.33 462.98,-176.18"/>
<polygon fill="#63b8ff" stroke="#63b8ff" points="463.85,-179.57 472.86,-174 462.35,-172.73 463.85,-179.57"/>
</a>
</g>
</g>
<!-- Node9 -->
<g id="Node000009" class="node">
<title>Node9</title>
<g id="a_Node000009"><a xlink:href="interfacecom_1_1teragrep_1_1pth__06_1_1planner_1_1MockDBRow.html#ab614cd7a7083bbae02e6cb864d5aea64" target="_top" xlink:title=" ">
<polygon fill="white" stroke="#666666" points="622,-126 462,-126 462,-96 622,-96 622,-126"/>
<text text-anchor="start" x="470" y="-114" font-family="Helvetica,sans-Serif" font-size="10.00">com.teragrep.pth_06.planner.</text>
<text text-anchor="middle" x="542" y="-103" font-family="Helvetica,sans-Serif" font-size="10.00">MockDBRow.path</text>
</a>
</g>
</g>
<!-- Node2&#45;&gt;Node9 -->
<g id="edge8_Node000002_Node000009" class="edge">
<title>Node2&#45;&gt;Node9</title>
<g id="a_edge8_Node000002_Node000009"><a xlink:title=" ">
<path fill="none" stroke="#63b8ff" d="M395.75,-191.85C401.46,-189.34 406.96,-186.41 412,-183 434.08,-168.05 425.84,-149.83 448,-135 450.4,-133.39 452.91,-131.89 455.49,-130.49"/>
<polygon fill="#63b8ff" stroke="#63b8ff" points="457.05,-133.62 464.52,-126.11 454,-127.32 457.05,-133.62"/>
</a>
</g>
</g>
<!-- Node10 -->
<g id="Node000010" class="node">
<title>Node10</title>
<g id="a_Node000010"><a xlink:href="interfacecom_1_1teragrep_1_1pth__06_1_1planner_1_1MockDBRow.html#a092b8e42025da6f3c6ad5ea92a1a273f" target="_top" xlink:title=" ">
<polygon fill="white" stroke="#666666" points="622,-78 462,-78 462,-48 622,-48 622,-78"/>
<text text-anchor="start" x="470" y="-66" font-family="Helvetica,sans-Serif" font-size="10.00">com.teragrep.pth_06.planner.</text>
<text text-anchor="middle" x="542" y="-55" font-family="Helvetica,sans-Serif" font-size="10.00">MockDBRow.stream</text>
</a>
</g>
</g>
<!-- Node2&#45;&gt;Node10 -->
<g id="edge9_Node000002_Node000010" class="edge">
<title>Node2&#45;&gt;Node10</title>
<g id="a_edge9_Node000002_Node000010"><a xlink:title=" ">
<path fill="none" stroke="#63b8ff" d="M399.47,-191.94C403.98,-189.4 408.21,-186.44 412,-183 445.72,-152.35 414.11,-117.47 448,-87 449.71,-85.46 451.51,-84.02 453.38,-82.66"/>
<polygon fill="#63b8ff" stroke="#63b8ff" points="455.36,-85.55 462,-77.29 451.66,-79.61 455.36,-85.55"/>
</a>
</g>
</g>
<!-- Node11 -->
<g id="Node000011" class="node">
<title>Node11</title>
<g id="a_Node000011"><a xlink:href="interfacecom_1_1teragrep_1_1pth__06_1_1planner_1_1MockDBRow.html#a530a3c1472c332aacad872702a077e48" target="_top" xlink:title=" ">
<polygon fill="white" stroke="#666666" points="636,-30 448,-30 448,0 636,0 636,-30"/>
<text text-anchor="start" x="456" y="-18" font-family="Helvetica,sans-Serif" font-size="10.00">com.teragrep.pth_06.planner.</text>
<text text-anchor="middle" x="542" y="-7" font-family="Helvetica,sans-Serif" font-size="10.00">MockDBRow.uncompressedFilesize</text>
</a>
</g>
</g>
<!-- Node2&#45;&gt;Node11 -->
<g id="edge10_Node000002_Node000011" class="edge">
<title>Node2&#45;&gt;Node11</title>
<g id="a_edge10_Node000002_Node000011"><a xlink:title=" ">
<path fill="none" stroke="#63b8ff" d="M400.76,-191.92C404.84,-189.38 408.64,-186.43 412,-183 458.22,-135.92 401.53,-85.82 448,-39 448.96,-38.03 449.95,-37.11 450.97,-36.21"/>
<polygon fill="#63b8ff" stroke="#63b8ff" points="453.37,-38.8 459.34,-30.05 449.22,-33.16 453.37,-38.8"/>
</a>
</g>
</g>
</g>
</svg>
