<?xml version="1.0" encoding="UTF-8" standalone="no"?>
<!DOCTYPE svg PUBLIC "-//W3C//DTD SVG 1.1//EN"
 "http://www.w3.org/Graphics/SVG/1.1/DTD/svg11.dtd">
<!-- Generated by graphviz version 2.43.0 (0)
 -->
<!-- Title: com.teragrep.pth_06.planner.MockDBRow.logdate Pages: 1 -->
<svg width="397pt" height="134pt"
 viewBox="0.00 0.00 397.00 134.00" xmlns="http://www.w3.org/2000/svg" xmlns:xlink="http://www.w3.org/1999/xlink">
<g id="graph0" class="graph" transform="scale(1 1) rotate(0) translate(4 130)">
<title>com.teragrep.pth_06.planner.MockDBRow.logdate</title>
<!-- Node1 -->
<g id="Node000001" class="node">
<title>Node1</title>
<g id="a_Node000001"><a xlink:title=" ">
<polygon fill="#999999" stroke="#666666" points="389,-78 229,-78 229,-48 389,-48 389,-78"/>
<text text-anchor="start" x="237" y="-66" font-family="Helvetica,sans-Serif" font-size="10.00">com.teragrep.pth_06.planner.</text>
<text text-anchor="middle" x="309" y="-55" font-family="Helvetica,sans-Serif" font-size="10.00">MockDBRow.logdate</text>
</a>
</g>
</g>
<!-- Node2 -->
<g id="Node000002" class="node">
<title>Node2</title>
<g id="a_Node000002"><a xlink:href="classcom_1_1teragrep_1_1pth__06_1_1planner_1_1MockDBNonSyslogRowImpl.html#a1717e374e37ed3443355cccdde4d7e97" target="_top" xlink:title=" ">
<polygon fill="white" stroke="#666666" points="192,-126 1,-126 1,-96 192,-96 192,-126"/>
<text text-anchor="start" x="9" y="-114" font-family="Helvetica,sans-Serif" font-size="10.00">com.teragrep.pth_06.planner.</text>
<text text-anchor="middle" x="96.5" y="-103" font-family="Helvetica,sans-Serif" font-size="10.00">MockDBNonSyslogRowImpl.logdate</text>
</a>
</g>
</g>
<!-- Node1&#45;&gt;Node2 -->
<g id="edge1_Node000001_Node000002" class="edge">
<title>Node1&#45;&gt;Node2</title>
<g id="a_edge1_Node000001_Node000002"><a xlink:title=" ">
<path fill="none" stroke="#63b8ff" d="M232.12,-80.3C209.59,-85.44 185.12,-91.02 163.29,-96"/>
<polygon fill="#63b8ff" stroke="#63b8ff" points="233,-83.69 241.97,-78.06 231.45,-76.87 233,-83.69"/>
</a>
</g>
</g>
<!-- Node3 -->
<g id="Node000003" class="node">
<title>Node3</title>
<g id="a_Node000003"><a xlink:href="classcom_1_1teragrep_1_1pth__06_1_1planner_1_1RecordableMockDBRow.html#ace011445eeaed1984183cc3fc4723b5a" target="_top" xlink:title=" ">
<polygon fill="white" stroke="#666666" points="182.5,-78 10.5,-78 10.5,-48 182.5,-48 182.5,-78"/>
<text text-anchor="start" x="18.5" y="-66" font-family="Helvetica,sans-Serif" font-size="10.00">com.teragrep.pth_06.planner.</text>
<text text-anchor="middle" x="96.5" y="-55" font-family="Helvetica,sans-Serif" font-size="10.00">RecordableMockDBRow.logdate</text>
</a>
</g>
</g>
<!-- Node1&#45;&gt;Node3 -->
<g id="edge2_Node000001_Node000003" class="edge">
<title>Node1&#45;&gt;Node3</title>
<g id="a_edge2_Node000001_Node000003"><a xlink:title=" ">
<path fill="none" stroke="#63b8ff" d="M218.4,-63C206.56,-63 194.45,-63 182.69,-63"/>
<polygon fill="#63b8ff" stroke="#63b8ff" points="218.72,-66.5 228.72,-63 218.72,-59.5 218.72,-66.5"/>
</a>
</g>
</g>
<!-- Node4 -->
<g id="Node000004" class="node">
<title>Node4</title>
<g id="a_Node000004"><a xlink:href="classcom_1_1teragrep_1_1pth__06_1_1planner_1_1MockDBNonSyslogRowImpl.html#a87a0075c19bcbe2553e0ff06c7502209" target="_top" xlink:title=" ">
<polygon fill="white" stroke="#666666" points="193,-30 0,-30 0,0 193,0 193,-30"/>
<text text-anchor="start" x="8" y="-18" font-family="Helvetica,sans-Serif" font-size="10.00">com.teragrep.pth_06.planner.</text>
<text text-anchor="middle" x="96.5" y="-7" font-family="Helvetica,sans-Serif" font-size="10.00">MockDBNonSyslogRowImpl.toString</text>
</a>
</g>
</g>
<!-- Node1&#45;&gt;Node4 -->
<g id="edge3_Node000001_Node000004" class="edge">
<title>Node1&#45;&gt;Node4</title>
<g id="a_edge3_Node000001_Node000004"><a xlink:title=" ">
<path fill="none" stroke="#63b8ff" d="M232.12,-45.7C209.59,-40.56 185.12,-34.98 163.29,-30"/>
<polygon fill="#63b8ff" stroke="#63b8ff" points="231.45,-49.13 241.97,-47.94 233,-42.31 231.45,-49.13"/>
</a>
</g>
</g>
</g>
</svg>
