<?xml version="1.0" encoding="UTF-8" standalone="no"?>
<!DOCTYPE svg PUBLIC "-//W3C//DTD SVG 1.1//EN"
 "http://www.w3.org/Graphics/SVG/1.1/DTD/svg11.dtd">
<!-- Generated by graphviz version 2.43.0 (0)
 -->
<!-- Title: com.teragrep.pth_06.planner.walker.conditions.QueryCondition.condition Pages: 1 -->
<svg width="1191pt" height="1384pt"
 viewBox="0.00 0.00 1191.00 1384.00" xmlns="http://www.w3.org/2000/svg" xmlns:xlink="http://www.w3.org/1999/xlink">
<g id="graph0" class="graph" transform="scale(1 1) rotate(0) translate(4 1380)">
<title>com.teragrep.pth_06.planner.walker.conditions.QueryCondition.condition</title>
<!-- Node1 -->
<g id="Node000001" class="node">
<title>Node1</title>
<g id="a_Node000001"><a xlink:title=" ">
<polygon fill="#999999" stroke="#666666" points="1183,-217 935,-217 935,-187 1183,-187 1183,-217"/>
<text text-anchor="start" x="943" y="-205" font-family="Helvetica,sans-Serif" font-size="10.00">com.teragrep.pth_06.planner.walker.conditions.</text>
<text text-anchor="middle" x="1059" y="-194" font-family="Helvetica,sans-Serif" font-size="10.00">QueryCondition.condition</text>
</a>
</g>
</g>
<!-- Node2 -->
<g id="Node000002" class="node">
<title>Node2</title>
<g id="a_Node000002"><a xlink:href="classcom_1_1teragrep_1_1pth__06_1_1planner_1_1walker_1_1conditions_1_1HostCondition.html#a5e1a6cbe0677ad979097ecc9ca2893b1" target="_top" xlink:title=" ">
<polygon fill="white" stroke="#666666" points="875,-1208 627,-1208 627,-1178 875,-1178 875,-1208"/>
<text text-anchor="start" x="635" y="-1196" font-family="Helvetica,sans-Serif" font-size="10.00">com.teragrep.pth_06.planner.walker.conditions.</text>
<text text-anchor="middle" x="751" y="-1185" font-family="Helvetica,sans-Serif" font-size="10.00">HostCondition.condition</text>
</a>
</g>
</g>
<!-- Node1&#45;&gt;Node2 -->
<g id="edge1_Node000001_Node000002" class="edge">
<title>Node1&#45;&gt;Node2</title>
<g id="a_edge1_Node000001_Node000002"><a xlink:title=" ">
<path fill="none" stroke="#63b8ff" d="M1054.06,-227.26C1039.55,-317.67 985.4,-632.95 899,-881 857.64,-999.75 785.22,-1133.62 760.53,-1177.9"/>
<polygon fill="#63b8ff" stroke="#63b8ff" points="1057.56,-227.57 1055.67,-217.14 1050.64,-226.47 1057.56,-227.57"/>
</a>
</g>
</g>
<!-- Node10 -->
<g id="Node000010" class="node">
<title>Node10</title>
<g id="a_Node000010"><a xlink:href="classcom_1_1teragrep_1_1pth__06_1_1planner_1_1walker_1_1conditions_1_1IndexCondition.html#a657fd2ee2d33ed734ca426cc64990be8" target="_top" xlink:title=" ">
<polygon fill="white" stroke="#666666" points="875,-872 627,-872 627,-842 875,-842 875,-872"/>
<text text-anchor="start" x="635" y="-860" font-family="Helvetica,sans-Serif" font-size="10.00">com.teragrep.pth_06.planner.walker.conditions.</text>
<text text-anchor="middle" x="751" y="-849" font-family="Helvetica,sans-Serif" font-size="10.00">IndexCondition.condition</text>
</a>
</g>
</g>
<!-- Node1&#45;&gt;Node10 -->
<g id="edge9_Node000001_Node000010" class="edge">
<title>Node1&#45;&gt;Node10</title>
<g id="a_edge9_Node000001_Node000010"><a xlink:title=" ">
<path fill="none" stroke="#63b8ff" d="M1051.26,-227.27C1032.41,-296.01 975.52,-491.3 899,-641 857.81,-721.58 791.55,-807.75 764.3,-841.85"/>
<polygon fill="#63b8ff" stroke="#63b8ff" points="1054.71,-227.92 1053.95,-217.35 1047.95,-226.08 1054.71,-227.92"/>
</a>
</g>
</g>
<!-- Node18 -->
<g id="Node000018" class="node">
<title>Node18</title>
<g id="a_Node000018"><a xlink:href="classcom_1_1teragrep_1_1pth__06_1_1planner_1_1walker_1_1conditions_1_1IndexStatementCondition.html#ad8a40368c02dae91ddc55b86e2ab7e10" target="_top" xlink:title=" ">
<polygon fill="white" stroke="#666666" points="875,-632 627,-632 627,-602 875,-602 875,-632"/>
<text text-anchor="start" x="635" y="-620" font-family="Helvetica,sans-Serif" font-size="10.00">com.teragrep.pth_06.planner.walker.conditions.</text>
<text text-anchor="middle" x="751" y="-609" font-family="Helvetica,sans-Serif" font-size="10.00">IndexStatementCondition.condition</text>
</a>
</g>
</g>
<!-- Node1&#45;&gt;Node18 -->
<g id="edge17_Node000001_Node000018" class="edge">
<title>Node1&#45;&gt;Node18</title>
<g id="a_edge17_Node000001_Node000018"><a xlink:title=" ">
<path fill="none" stroke="#63b8ff" d="M1040.5,-225.73C984.35,-301.89 809.65,-538.81 763.36,-601.6"/>
<polygon fill="#63b8ff" stroke="#63b8ff" points="1043.63,-227.39 1046.75,-217.26 1037.99,-223.23 1043.63,-227.39"/>
</a>
</g>
</g>
<!-- Node22 -->
<g id="Node000022" class="node">
<title>Node22</title>
<g id="a_Node000022"><a xlink:href="classcom_1_1teragrep_1_1pth__06_1_1planner_1_1walker_1_1conditions_1_1SourceTypeCondition.html#ae7125daefbefb1c254059081c5eb53ae" target="_top" xlink:title=" ">
<polygon fill="white" stroke="#666666" points="875,-389 627,-389 627,-359 875,-359 875,-389"/>
<text text-anchor="start" x="635" y="-377" font-family="Helvetica,sans-Serif" font-size="10.00">com.teragrep.pth_06.planner.walker.conditions.</text>
<text text-anchor="middle" x="751" y="-366" font-family="Helvetica,sans-Serif" font-size="10.00">SourceTypeCondition.condition</text>
</a>
</g>
</g>
<!-- Node1&#45;&gt;Node22 -->
<g id="edge21_Node000001_Node000022" class="edge">
<title>Node1&#45;&gt;Node22</title>
<g id="a_edge21_Node000001_Node000022"><a xlink:title=" ">
<path fill="none" stroke="#63b8ff" d="M1022.07,-222.2C959.93,-257.12 833.78,-328.03 778.72,-358.98"/>
<polygon fill="#63b8ff" stroke="#63b8ff" points="1024.11,-225.06 1031.11,-217.11 1020.68,-218.96 1024.11,-225.06"/>
</a>
</g>
</g>
<!-- Node30 -->
<g id="Node000030" class="node">
<title>Node30</title>
<g id="a_Node000030"><a xlink:href="classcom_1_1teragrep_1_1pth__06_1_1planner_1_1walker_1_1conditions_1_1ElementCondition.html#ad598b3368f8fca059dfc07a49d352f31" target="_top" xlink:title=" ">
<polygon fill="white" stroke="#666666" points="875,-174 627,-174 627,-144 875,-144 875,-174"/>
<text text-anchor="start" x="635" y="-162" font-family="Helvetica,sans-Serif" font-size="10.00">com.teragrep.pth_06.planner.walker.conditions.</text>
<text text-anchor="middle" x="751" y="-151" font-family="Helvetica,sans-Serif" font-size="10.00">ElementCondition.conditionForJournalDBQuery</text>
</a>
</g>
</g>
<!-- Node1&#45;&gt;Node30 -->
<g id="edge29_Node000001_Node000030" class="edge">
<title>Node1&#45;&gt;Node30</title>
<g id="a_edge29_Node000001_Node000030"><a xlink:title=" ">
<path fill="none" stroke="#63b8ff" d="M940.75,-185.52C913.86,-181.74 885.4,-177.75 858.96,-174.03"/>
<polygon fill="#63b8ff" stroke="#63b8ff" points="940.59,-189.03 950.98,-186.96 941.56,-182.1 940.59,-189.03"/>
</a>
</g>
</g>
<!-- Node32 -->
<g id="Node000032" class="node">
<title>Node32</title>
<g id="a_Node000032"><a xlink:href="classcom_1_1teragrep_1_1pth__06_1_1planner_1_1walker_1_1conditions_1_1ElementCondition.html#ad1faef74318cb350165bbeafd562ecde" target="_top" xlink:title=" ">
<polygon fill="white" stroke="#666666" points="248,-222 0,-222 0,-192 248,-192 248,-222"/>
<text text-anchor="start" x="8" y="-210" font-family="Helvetica,sans-Serif" font-size="10.00">com.teragrep.pth_06.planner.walker.conditions.</text>
<text text-anchor="middle" x="124" y="-199" font-family="Helvetica,sans-Serif" font-size="10.00">ElementCondition.conditionForStreamDBQuery</text>
</a>
</g>
</g>
<!-- Node1&#45;&gt;Node32 -->
<g id="edge38_Node000001_Node000032" class="edge">
<title>Node1&#45;&gt;Node32</title>
<g id="a_edge38_Node000001_Node000032"><a xlink:title=" ">
<path fill="none" stroke="#63b8ff" d="M924.48,-202.72C743.64,-203.68 423.34,-205.4 248.06,-206.34"/>
<polygon fill="#63b8ff" stroke="#63b8ff" points="924.61,-206.22 934.59,-202.66 924.57,-199.22 924.61,-206.22"/>
</a>
</g>
</g>
<!-- Node37 -->
<g id="Node000037" class="node">
<title>Node37</title>
<g id="a_Node000037"><a xlink:href="classcom_1_1teragrep_1_1pth__06_1_1planner_1_1walker_1_1conditions_1_1NegatedCondition.html#a39e7e338fc6a0364e26cc14c124f176f" target="_top" xlink:title=" ">
<polygon fill="white" stroke="#666666" points="875,-126 627,-126 627,-96 875,-96 875,-126"/>
<text text-anchor="start" x="635" y="-114" font-family="Helvetica,sans-Serif" font-size="10.00">com.teragrep.pth_06.planner.walker.conditions.</text>
<text text-anchor="middle" x="751" y="-103" font-family="Helvetica,sans-Serif" font-size="10.00">NegatedCondition.NegatedCondition</text>
</a>
</g>
</g>
<!-- Node1&#45;&gt;Node37 -->
<g id="edge39_Node000001_Node000037" class="edge">
<title>Node1&#45;&gt;Node37</title>
<g id="a_edge39_Node000001_Node000037"><a xlink:title=" ">
<path fill="none" stroke="#63b8ff" d="M1018.96,-182.47C987.34,-167.41 941.26,-147.17 899,-135 887.2,-131.6 874.71,-128.64 862.21,-126.07"/>
<polygon fill="#63b8ff" stroke="#63b8ff" points="1017.76,-185.78 1028.29,-186.96 1020.8,-179.47 1017.76,-185.78"/>
</a>
</g>
</g>
<!-- Node38 -->
<g id="Node000038" class="node">
<title>Node38</title>
<g id="a_Node000038"><a xlink:href="classcom_1_1teragrep_1_1pth__06_1_1planner_1_1walker_1_1conditions_1_1EarliestConditionTest.html#a19f3272636d45c54f65b2c927422bb08" target="_top" xlink:title=" ">
<polygon fill="white" stroke="#666666" points="899,-78 603,-78 603,-48 899,-48 899,-78"/>
<text text-anchor="start" x="611" y="-66" font-family="Helvetica,sans-Serif" font-size="10.00">com.teragrep.pth_06.planner.walker.conditions.</text>
<text text-anchor="middle" x="751" y="-55" font-family="Helvetica,sans-Serif" font-size="10.00">EarliestConditionTest.negativeNumberInputExceptionTest</text>
</a>
</g>
</g>
<!-- Node1&#45;&gt;Node38 -->
<g id="edge40_Node000001_Node000038" class="edge">
<title>Node1&#45;&gt;Node38</title>
<g id="a_edge40_Node000001_Node000038"><a xlink:title=" ">
<path fill="none" stroke="#63b8ff" d="M1034.81,-179.75C1005.62,-153.13 952.77,-109.35 899,-87 890.64,-83.53 881.82,-80.55 872.82,-78.01"/>
<polygon fill="#63b8ff" stroke="#63b8ff" points="1032.68,-182.55 1042.39,-186.77 1037.43,-177.41 1032.68,-182.55"/>
</a>
</g>
</g>
<!-- Node39 -->
<g id="Node000039" class="node">
<title>Node39</title>
<g id="a_Node000039"><a xlink:href="classcom_1_1teragrep_1_1pth__06_1_1planner_1_1walker_1_1conditions_1_1LatestConditionTest.html#a24afebf5ef21415f5bff644f8116872c" target="_top" xlink:title=" ">
<polygon fill="white" stroke="#666666" points="896,-30 606,-30 606,0 896,0 896,-30"/>
<text text-anchor="start" x="614" y="-18" font-family="Helvetica,sans-Serif" font-size="10.00">com.teragrep.pth_06.planner.walker.conditions.</text>
<text text-anchor="middle" x="751" y="-7" font-family="Helvetica,sans-Serif" font-size="10.00">LatestConditionTest.negativeNumberInputExceptionTest</text>
</a>
</g>
</g>
<!-- Node1&#45;&gt;Node39 -->
<g id="edge41_Node000001_Node000039" class="edge">
<title>Node1&#45;&gt;Node39</title>
<g id="a_edge41_Node000001_Node000039"><a xlink:title=" ">
<path fill="none" stroke="#63b8ff" d="M1042.43,-178.21C1017.11,-141.68 963.33,-72.48 899,-39 892.46,-35.6 885.56,-32.66 878.45,-30.11"/>
<polygon fill="#63b8ff" stroke="#63b8ff" points="1039.72,-180.46 1048.24,-186.76 1045.51,-176.52 1039.72,-180.46"/>
</a>
</g>
</g>
<!-- Node3 -->
<g id="Node000003" class="node">
<title>Node3</title>
<g id="a_Node000003"><a xlink:href="classcom_1_1teragrep_1_1pth__06_1_1planner_1_1walker_1_1conditions_1_1HostConditionTest.html#ac5fb835f367a0f5fc3295da6e4550324" target="_top" xlink:title=" ">
<polygon fill="white" stroke="#666666" points="549.5,-1376 301.5,-1376 301.5,-1346 549.5,-1346 549.5,-1376"/>
<text text-anchor="start" x="309.5" y="-1364" font-family="Helvetica,sans-Serif" font-size="10.00">com.teragrep.pth_06.planner.walker.conditions.</text>
<text text-anchor="middle" x="425.5" y="-1353" font-family="Helvetica,sans-Serif" font-size="10.00">HostConditionTest.conditionTest</text>
</a>
</g>
</g>
<!-- Node2&#45;&gt;Node3 -->
<g id="edge2_Node000002_Node000003" class="edge">
<title>Node2&#45;&gt;Node3</title>
<g id="a_edge2_Node000002_Node000003"><a xlink:title=" ">
<path fill="none" stroke="#63b8ff" d="M729.05,-1215.44C697.33,-1247.92 633.7,-1307.38 567,-1337 559.2,-1340.47 550.95,-1343.43 542.51,-1345.97"/>
<polygon fill="#63b8ff" stroke="#63b8ff" points="731.63,-1217.81 736.05,-1208.18 726.59,-1212.95 731.63,-1217.81"/>
</a>
</g>
</g>
<!-- Node4 -->
<g id="Node000004" class="node">
<title>Node4</title>
<g id="a_Node000004"><a xlink:href="classcom_1_1teragrep_1_1pth__06_1_1planner_1_1walker_1_1conditions_1_1HostConditionTest.html#ae2adcfd60fd6418231755cbbdd3c14cc" target="_top" xlink:title=" ">
<polygon fill="white" stroke="#666666" points="549.5,-1328 301.5,-1328 301.5,-1298 549.5,-1298 549.5,-1328"/>
<text text-anchor="start" x="309.5" y="-1316" font-family="Helvetica,sans-Serif" font-size="10.00">com.teragrep.pth_06.planner.walker.conditions.</text>
<text text-anchor="middle" x="425.5" y="-1305" font-family="Helvetica,sans-Serif" font-size="10.00">HostConditionTest.equalsTest</text>
</a>
</g>
</g>
<!-- Node2&#45;&gt;Node4 -->
<g id="edge3_Node000002_Node000004" class="edge">
<title>Node2&#45;&gt;Node4</title>
<g id="a_edge3_Node000002_Node000004"><a xlink:title=" ">
<path fill="none" stroke="#63b8ff" d="M718.18,-1213.67C682.73,-1235.73 623,-1270.06 567,-1289 556.8,-1292.45 546.01,-1295.42 535.13,-1297.97"/>
<polygon fill="#63b8ff" stroke="#63b8ff" points="720.48,-1216.35 727.08,-1208.07 716.76,-1210.43 720.48,-1216.35"/>
</a>
</g>
</g>
<!-- Node5 -->
<g id="Node000005" class="node">
<title>Node5</title>
<g id="a_Node000005"><a xlink:href="classcom_1_1teragrep_1_1pth__06_1_1planner_1_1walker_1_1conditions_1_1HostConditionTest.html#a5cfa1efd300b2f70a6e669698e37ba83" target="_top" xlink:title=" ">
<polygon fill="white" stroke="#666666" points="549.5,-1280 301.5,-1280 301.5,-1250 549.5,-1250 549.5,-1280"/>
<text text-anchor="start" x="309.5" y="-1268" font-family="Helvetica,sans-Serif" font-size="10.00">com.teragrep.pth_06.planner.walker.conditions.</text>
<text text-anchor="middle" x="425.5" y="-1257" font-family="Helvetica,sans-Serif" font-size="10.00">HostConditionTest.negationTest</text>
</a>
</g>
</g>
<!-- Node2&#45;&gt;Node5 -->
<g id="edge4_Node000002_Node000005" class="edge">
<title>Node2&#45;&gt;Node5</title>
<g id="a_edge4_Node000002_Node000005"><a xlink:title=" ">
<path fill="none" stroke="#63b8ff" d="M687.77,-1210.77C652.52,-1220.47 607.5,-1232.25 567,-1241 552.25,-1244.19 536.55,-1247.22 521.19,-1249.99"/>
<polygon fill="#63b8ff" stroke="#63b8ff" points="688.74,-1214.13 697.44,-1208.09 686.87,-1207.38 688.74,-1214.13"/>
</a>
</g>
</g>
<!-- Node6 -->
<g id="Node000006" class="node">
<title>Node6</title>
<g id="a_Node000006"><a xlink:href="classcom_1_1teragrep_1_1pth__06_1_1planner_1_1walker_1_1conditions_1_1HostConditionTest.html#a1bfa9d2d16ee9cff750080cd3e76e412" target="_top" xlink:title=" ">
<polygon fill="white" stroke="#666666" points="549.5,-1232 301.5,-1232 301.5,-1202 549.5,-1202 549.5,-1232"/>
<text text-anchor="start" x="309.5" y="-1220" font-family="Helvetica,sans-Serif" font-size="10.00">com.teragrep.pth_06.planner.walker.conditions.</text>
<text text-anchor="middle" x="425.5" y="-1209" font-family="Helvetica,sans-Serif" font-size="10.00">HostConditionTest.testPartialWildcard</text>
</a>
</g>
</g>
<!-- Node2&#45;&gt;Node6 -->
<g id="edge5_Node000002_Node000006" class="edge">
<title>Node2&#45;&gt;Node6</title>
<g id="a_edge5_Node000002_Node000006"><a xlink:title=" ">
<path fill="none" stroke="#63b8ff" d="M616.64,-1202.89C594.47,-1204.54 571.56,-1206.24 549.65,-1207.86"/>
<polygon fill="#63b8ff" stroke="#63b8ff" points="617.06,-1206.37 626.78,-1202.14 616.54,-1199.39 617.06,-1206.37"/>
</a>
</g>
</g>
<!-- Node7 -->
<g id="Node000007" class="node">
<title>Node7</title>
<g id="a_Node000007"><a xlink:href="classcom_1_1teragrep_1_1pth__06_1_1planner_1_1walker_1_1conditions_1_1HostConditionTest.html#a4b66535f188bdd912a3b75ddc8378a24" target="_top" xlink:title=" ">
<polygon fill="white" stroke="#666666" points="549.5,-1184 301.5,-1184 301.5,-1154 549.5,-1154 549.5,-1184"/>
<text text-anchor="start" x="309.5" y="-1172" font-family="Helvetica,sans-Serif" font-size="10.00">com.teragrep.pth_06.planner.walker.conditions.</text>
<text text-anchor="middle" x="425.5" y="-1161" font-family="Helvetica,sans-Serif" font-size="10.00">HostConditionTest.testPartialWildcardNegation</text>
</a>
</g>
</g>
<!-- Node2&#45;&gt;Node7 -->
<g id="edge6_Node000002_Node000007" class="edge">
<title>Node2&#45;&gt;Node7</title>
<g id="a_edge6_Node000002_Node000007"><a xlink:title=" ">
<path fill="none" stroke="#63b8ff" d="M616.64,-1183.11C594.47,-1181.46 571.56,-1179.76 549.65,-1178.14"/>
<polygon fill="#63b8ff" stroke="#63b8ff" points="616.54,-1186.61 626.78,-1183.86 617.06,-1179.63 616.54,-1186.61"/>
</a>
</g>
</g>
<!-- Node8 -->
<g id="Node000008" class="node">
<title>Node8</title>
<g id="a_Node000008"><a xlink:href="classcom_1_1teragrep_1_1pth__06_1_1planner_1_1walker_1_1conditions_1_1HostConditionTest.html#ac5b9e9dd993fb16cc758e1e190ee14be" target="_top" xlink:title=" ">
<polygon fill="white" stroke="#666666" points="549.5,-1136 301.5,-1136 301.5,-1106 549.5,-1106 549.5,-1136"/>
<text text-anchor="start" x="309.5" y="-1124" font-family="Helvetica,sans-Serif" font-size="10.00">com.teragrep.pth_06.planner.walker.conditions.</text>
<text text-anchor="middle" x="425.5" y="-1113" font-family="Helvetica,sans-Serif" font-size="10.00">HostConditionTest.wildcardAsTrueTest</text>
</a>
</g>
</g>
<!-- Node2&#45;&gt;Node8 -->
<g id="edge7_Node000002_Node000008" class="edge">
<title>Node2&#45;&gt;Node8</title>
<g id="a_edge7_Node000002_Node000008"><a xlink:title=" ">
<path fill="none" stroke="#63b8ff" d="M687.77,-1175.23C652.52,-1165.53 607.5,-1153.75 567,-1145 552.25,-1141.81 536.55,-1138.78 521.19,-1136.01"/>
<polygon fill="#63b8ff" stroke="#63b8ff" points="686.87,-1178.62 697.44,-1177.91 688.74,-1171.87 686.87,-1178.62"/>
</a>
</g>
</g>
<!-- Node9 -->
<g id="Node000009" class="node">
<title>Node9</title>
<g id="a_Node000009"><a xlink:href="classcom_1_1teragrep_1_1pth__06_1_1planner_1_1walker_1_1conditions_1_1HostConditionTest.html#a94fb6e3883e7e0187f3f744b05e4d72b" target="_top" xlink:title=" ">
<polygon fill="white" stroke="#666666" points="550.5,-1088 300.5,-1088 300.5,-1058 550.5,-1058 550.5,-1088"/>
<text text-anchor="start" x="308.5" y="-1076" font-family="Helvetica,sans-Serif" font-size="10.00">com.teragrep.pth_06.planner.walker.conditions.</text>
<text text-anchor="middle" x="425.5" y="-1065" font-family="Helvetica,sans-Serif" font-size="10.00">HostConditionTest.wildcardNegationAsFalseTest</text>
</a>
</g>
</g>
<!-- Node2&#45;&gt;Node9 -->
<g id="edge8_Node000002_Node000009" class="edge">
<title>Node2&#45;&gt;Node9</title>
<g id="a_edge8_Node000002_Node000009"><a xlink:title=" ">
<path fill="none" stroke="#63b8ff" d="M718.18,-1172.33C682.73,-1150.27 623,-1115.94 567,-1097 556.8,-1093.55 546.01,-1090.58 535.13,-1088.03"/>
<polygon fill="#63b8ff" stroke="#63b8ff" points="716.76,-1175.57 727.08,-1177.93 720.48,-1169.65 716.76,-1175.57"/>
</a>
</g>
</g>
<!-- Node11 -->
<g id="Node000011" class="node">
<title>Node11</title>
<g id="a_Node000011"><a xlink:href="classcom_1_1teragrep_1_1pth__06_1_1planner_1_1walker_1_1conditions_1_1IndexConditionTest.html#a0634fb1173f568590e68a4797948452f" target="_top" xlink:title=" ">
<polygon fill="white" stroke="#666666" points="549.5,-1040 301.5,-1040 301.5,-1010 549.5,-1010 549.5,-1040"/>
<text text-anchor="start" x="309.5" y="-1028" font-family="Helvetica,sans-Serif" font-size="10.00">com.teragrep.pth_06.planner.walker.conditions.</text>
<text text-anchor="middle" x="425.5" y="-1017" font-family="Helvetica,sans-Serif" font-size="10.00">IndexConditionTest.conditionTest</text>
</a>
</g>
</g>
<!-- Node10&#45;&gt;Node11 -->
<g id="edge10_Node000010_Node000011" class="edge">
<title>Node10&#45;&gt;Node11</title>
<g id="a_edge10_Node000010_Node000011"><a xlink:title=" ">
<path fill="none" stroke="#63b8ff" d="M729.05,-879.44C697.33,-911.92 633.7,-971.38 567,-1001 559.2,-1004.47 550.95,-1007.43 542.51,-1009.97"/>
<polygon fill="#63b8ff" stroke="#63b8ff" points="731.63,-881.81 736.05,-872.18 726.59,-876.95 731.63,-881.81"/>
</a>
</g>
</g>
<!-- Node12 -->
<g id="Node000012" class="node">
<title>Node12</title>
<g id="a_Node000012"><a xlink:href="classcom_1_1teragrep_1_1pth__06_1_1planner_1_1walker_1_1conditions_1_1IndexConditionTest.html#a88d86d8a4d7b500a187f10a1141e5fc8" target="_top" xlink:title=" ">
<polygon fill="white" stroke="#666666" points="549.5,-992 301.5,-992 301.5,-962 549.5,-962 549.5,-992"/>
<text text-anchor="start" x="309.5" y="-980" font-family="Helvetica,sans-Serif" font-size="10.00">com.teragrep.pth_06.planner.walker.conditions.</text>
<text text-anchor="middle" x="425.5" y="-969" font-family="Helvetica,sans-Serif" font-size="10.00">IndexConditionTest.equalsTest</text>
</a>
</g>
</g>
<!-- Node10&#45;&gt;Node12 -->
<g id="edge11_Node000010_Node000012" class="edge">
<title>Node10&#45;&gt;Node12</title>
<g id="a_edge11_Node000010_Node000012"><a xlink:title=" ">
<path fill="none" stroke="#63b8ff" d="M718.18,-877.67C682.73,-899.73 623,-934.06 567,-953 556.8,-956.45 546.01,-959.42 535.13,-961.97"/>
<polygon fill="#63b8ff" stroke="#63b8ff" points="720.48,-880.35 727.08,-872.07 716.76,-874.43 720.48,-880.35"/>
</a>
</g>
</g>
<!-- Node13 -->
<g id="Node000013" class="node">
<title>Node13</title>
<g id="a_Node000013"><a xlink:href="classcom_1_1teragrep_1_1pth__06_1_1planner_1_1walker_1_1conditions_1_1IndexConditionTest.html#a074a653d417c279a1d728dd333084a71" target="_top" xlink:title=" ">
<polygon fill="white" stroke="#666666" points="549.5,-944 301.5,-944 301.5,-914 549.5,-914 549.5,-944"/>
<text text-anchor="start" x="309.5" y="-932" font-family="Helvetica,sans-Serif" font-size="10.00">com.teragrep.pth_06.planner.walker.conditions.</text>
<text text-anchor="middle" x="425.5" y="-921" font-family="Helvetica,sans-Serif" font-size="10.00">IndexConditionTest.negationTest</text>
</a>
</g>
</g>
<!-- Node10&#45;&gt;Node13 -->
<g id="edge12_Node000010_Node000013" class="edge">
<title>Node10&#45;&gt;Node13</title>
<g id="a_edge12_Node000010_Node000013"><a xlink:title=" ">
<path fill="none" stroke="#63b8ff" d="M687.77,-874.77C652.52,-884.47 607.5,-896.25 567,-905 552.25,-908.19 536.55,-911.22 521.19,-913.99"/>
<polygon fill="#63b8ff" stroke="#63b8ff" points="688.74,-878.13 697.44,-872.09 686.87,-871.38 688.74,-878.13"/>
</a>
</g>
</g>
<!-- Node14 -->
<g id="Node000014" class="node">
<title>Node14</title>
<g id="a_Node000014"><a xlink:href="classcom_1_1teragrep_1_1pth__06_1_1planner_1_1walker_1_1conditions_1_1IndexConditionTest.html#aecac864eb019369aef22927fba31960b" target="_top" xlink:title=" ">
<polygon fill="white" stroke="#666666" points="549.5,-896 301.5,-896 301.5,-866 549.5,-866 549.5,-896"/>
<text text-anchor="start" x="309.5" y="-884" font-family="Helvetica,sans-Serif" font-size="10.00">com.teragrep.pth_06.planner.walker.conditions.</text>
<text text-anchor="middle" x="425.5" y="-873" font-family="Helvetica,sans-Serif" font-size="10.00">IndexConditionTest.testPartialWildcard</text>
</a>
</g>
</g>
<!-- Node10&#45;&gt;Node14 -->
<g id="edge13_Node000010_Node000014" class="edge">
<title>Node10&#45;&gt;Node14</title>
<g id="a_edge13_Node000010_Node000014"><a xlink:title=" ">
<path fill="none" stroke="#63b8ff" d="M616.64,-866.89C594.47,-868.54 571.56,-870.24 549.65,-871.86"/>
<polygon fill="#63b8ff" stroke="#63b8ff" points="617.06,-870.37 626.78,-866.14 616.54,-863.39 617.06,-870.37"/>
</a>
</g>
</g>
<!-- Node15 -->
<g id="Node000015" class="node">
<title>Node15</title>
<g id="a_Node000015"><a xlink:href="classcom_1_1teragrep_1_1pth__06_1_1planner_1_1walker_1_1conditions_1_1IndexConditionTest.html#abde474b71464e4cf751663d4ade3a66d" target="_top" xlink:title=" ">
<polygon fill="white" stroke="#666666" points="550,-848 301,-848 301,-818 550,-818 550,-848"/>
<text text-anchor="start" x="309" y="-836" font-family="Helvetica,sans-Serif" font-size="10.00">com.teragrep.pth_06.planner.walker.conditions.</text>
<text text-anchor="middle" x="425.5" y="-825" font-family="Helvetica,sans-Serif" font-size="10.00">IndexConditionTest.testPartialWildcardNegation</text>
</a>
</g>
</g>
<!-- Node10&#45;&gt;Node15 -->
<g id="edge14_Node000010_Node000015" class="edge">
<title>Node10&#45;&gt;Node15</title>
<g id="a_edge14_Node000010_Node000015"><a xlink:title=" ">
<path fill="none" stroke="#63b8ff" d="M616.72,-847.11C594.7,-845.48 571.95,-843.79 550.19,-842.18"/>
<polygon fill="#63b8ff" stroke="#63b8ff" points="616.54,-850.61 626.78,-847.86 617.06,-843.63 616.54,-850.61"/>
</a>
</g>
</g>
<!-- Node16 -->
<g id="Node000016" class="node">
<title>Node16</title>
<g id="a_Node000016"><a xlink:href="classcom_1_1teragrep_1_1pth__06_1_1planner_1_1walker_1_1conditions_1_1IndexConditionTest.html#a573db62e7987faf80014d6c28b6e88a4" target="_top" xlink:title=" ">
<polygon fill="white" stroke="#666666" points="549.5,-800 301.5,-800 301.5,-770 549.5,-770 549.5,-800"/>
<text text-anchor="start" x="309.5" y="-788" font-family="Helvetica,sans-Serif" font-size="10.00">com.teragrep.pth_06.planner.walker.conditions.</text>
<text text-anchor="middle" x="425.5" y="-777" font-family="Helvetica,sans-Serif" font-size="10.00">IndexConditionTest.wildcardAsTrueTest</text>
</a>
</g>
</g>
<!-- Node10&#45;&gt;Node16 -->
<g id="edge15_Node000010_Node000016" class="edge">
<title>Node10&#45;&gt;Node16</title>
<g id="a_edge15_Node000010_Node000016"><a xlink:title=" ">
<path fill="none" stroke="#63b8ff" d="M687.77,-839.23C652.52,-829.53 607.5,-817.75 567,-809 552.25,-805.81 536.55,-802.78 521.19,-800.01"/>
<polygon fill="#63b8ff" stroke="#63b8ff" points="686.87,-842.62 697.44,-841.91 688.74,-835.87 686.87,-842.62"/>
</a>
</g>
</g>
<!-- Node17 -->
<g id="Node000017" class="node">
<title>Node17</title>
<g id="a_Node000017"><a xlink:href="classcom_1_1teragrep_1_1pth__06_1_1planner_1_1walker_1_1conditions_1_1IndexConditionTest.html#a4004c2bc04159576e79677a9b34f7cb8" target="_top" xlink:title=" ">
<polygon fill="white" stroke="#666666" points="552.5,-752 298.5,-752 298.5,-722 552.5,-722 552.5,-752"/>
<text text-anchor="start" x="306.5" y="-740" font-family="Helvetica,sans-Serif" font-size="10.00">com.teragrep.pth_06.planner.walker.conditions.</text>
<text text-anchor="middle" x="425.5" y="-729" font-family="Helvetica,sans-Serif" font-size="10.00">IndexConditionTest.wildcardNegationAsFalseTest</text>
</a>
</g>
</g>
<!-- Node10&#45;&gt;Node17 -->
<g id="edge16_Node000010_Node000017" class="edge">
<title>Node10&#45;&gt;Node17</title>
<g id="a_edge16_Node000010_Node000017"><a xlink:title=" ">
<path fill="none" stroke="#63b8ff" d="M718.18,-836.33C682.73,-814.27 623,-779.94 567,-761 556.8,-757.55 546.01,-754.58 535.13,-752.03"/>
<polygon fill="#63b8ff" stroke="#63b8ff" points="716.76,-839.57 727.08,-841.93 720.48,-833.65 716.76,-839.57"/>
</a>
</g>
</g>
<!-- Node19 -->
<g id="Node000019" class="node">
<title>Node19</title>
<g id="a_Node000019"><a xlink:href="classcom_1_1teragrep_1_1pth__06_1_1planner_1_1walker_1_1conditions_1_1IndexStatementConditionTest.html#aee8f642495a3c26dce06361c3e44056b" target="_top" xlink:title=" ">
<polygon fill="white" stroke="#666666" points="549.5,-704 301.5,-704 301.5,-674 549.5,-674 549.5,-704"/>
<text text-anchor="start" x="309.5" y="-692" font-family="Helvetica,sans-Serif" font-size="10.00">com.teragrep.pth_06.planner.walker.conditions.</text>
<text text-anchor="middle" x="425.5" y="-681" font-family="Helvetica,sans-Serif" font-size="10.00">IndexStatementConditionTest.noMatchesTest</text>
</a>
</g>
</g>
<!-- Node18&#45;&gt;Node19 -->
<g id="edge18_Node000018_Node000019" class="edge">
<title>Node18&#45;&gt;Node19</title>
<g id="a_edge18_Node000018_Node000019"><a xlink:title=" ">
<path fill="none" stroke="#63b8ff" d="M687.77,-634.77C652.52,-644.47 607.5,-656.25 567,-665 552.25,-668.19 536.55,-671.22 521.19,-673.99"/>
<polygon fill="#63b8ff" stroke="#63b8ff" points="688.74,-638.13 697.44,-632.09 686.87,-631.38 688.74,-638.13"/>
</a>
</g>
</g>
<!-- Node20 -->
<g id="Node000020" class="node">
<title>Node20</title>
<g id="a_Node000020"><a xlink:href="classcom_1_1teragrep_1_1pth__06_1_1planner_1_1walker_1_1conditions_1_1IndexStatementConditionTest.html#a69de61f785b7a9fafee36855f7394932" target="_top" xlink:title=" ">
<polygon fill="white" stroke="#666666" points="561.5,-656 289.5,-656 289.5,-626 561.5,-626 561.5,-656"/>
<text text-anchor="start" x="297.5" y="-644" font-family="Helvetica,sans-Serif" font-size="10.00">com.teragrep.pth_06.planner.walker.conditions.</text>
<text text-anchor="middle" x="425.5" y="-633" font-family="Helvetica,sans-Serif" font-size="10.00">IndexStatementConditionTest.oneMatchingTableTest</text>
</a>
</g>
</g>
<!-- Node18&#45;&gt;Node20 -->
<g id="edge19_Node000018_Node000020" class="edge">
<title>Node18&#45;&gt;Node20</title>
<g id="a_edge19_Node000018_Node000020"><a xlink:title=" ">
<path fill="none" stroke="#63b8ff" d="M616.71,-626.89C598.49,-628.24 579.77,-629.63 561.52,-630.98"/>
<polygon fill="#63b8ff" stroke="#63b8ff" points="617.06,-630.37 626.78,-626.14 616.54,-623.39 617.06,-630.37"/>
</a>
</g>
</g>
<!-- Node21 -->
<g id="Node000021" class="node">
<title>Node21</title>
<g id="a_Node000021"><a xlink:href="classcom_1_1teragrep_1_1pth__06_1_1planner_1_1walker_1_1conditions_1_1IndexStatementConditionTest.html#affd12bbea6998863dc96bc4bdd7ab74f" target="_top" xlink:title=" ">
<polygon fill="white" stroke="#666666" points="561.5,-608 289.5,-608 289.5,-578 561.5,-578 561.5,-608"/>
<text text-anchor="start" x="297.5" y="-596" font-family="Helvetica,sans-Serif" font-size="10.00">com.teragrep.pth_06.planner.walker.conditions.</text>
<text text-anchor="middle" x="425.5" y="-585" font-family="Helvetica,sans-Serif" font-size="10.00">IndexStatementConditionTest.twoMatchingTableTest</text>
</a>
</g>
</g>
<!-- Node18&#45;&gt;Node21 -->
<g id="edge20_Node000018_Node000021" class="edge">
<title>Node18&#45;&gt;Node21</title>
<g id="a_edge20_Node000018_Node000021"><a xlink:title=" ">
<path fill="none" stroke="#63b8ff" d="M616.71,-607.11C598.49,-605.76 579.77,-604.37 561.52,-603.02"/>
<polygon fill="#63b8ff" stroke="#63b8ff" points="616.54,-610.61 626.78,-607.86 617.06,-603.63 616.54,-610.61"/>
</a>
</g>
</g>
<!-- Node23 -->
<g id="Node000023" class="node">
<title>Node23</title>
<g id="a_Node000023"><a xlink:href="classcom_1_1teragrep_1_1pth__06_1_1planner_1_1walker_1_1conditions_1_1SourceTypeConditionTest.html#ad61c6c368d81f41a20c821b7df11ee5e" target="_top" xlink:title=" ">
<polygon fill="white" stroke="#666666" points="549.5,-560 301.5,-560 301.5,-530 549.5,-530 549.5,-560"/>
<text text-anchor="start" x="309.5" y="-548" font-family="Helvetica,sans-Serif" font-size="10.00">com.teragrep.pth_06.planner.walker.conditions.</text>
<text text-anchor="middle" x="425.5" y="-537" font-family="Helvetica,sans-Serif" font-size="10.00">SourceTypeConditionTest.conditionTest</text>
</a>
</g>
</g>
<!-- Node22&#45;&gt;Node23 -->
<g id="edge22_Node000022_Node000023" class="edge">
<title>Node22&#45;&gt;Node23</title>
<g id="a_edge22_Node000022_Node000023"><a xlink:title=" ">
<path fill="none" stroke="#63b8ff" d="M729.64,-396.41C698.21,-429.47 634.43,-490.65 567,-521 559.33,-524.45 551.22,-527.41 542.91,-529.95"/>
<polygon fill="#63b8ff" stroke="#63b8ff" points="732.27,-398.73 736.56,-389.04 727.16,-393.94 732.27,-398.73"/>
</a>
</g>
</g>
<!-- Node24 -->
<g id="Node000024" class="node">
<title>Node24</title>
<g id="a_Node000024"><a xlink:href="classcom_1_1teragrep_1_1pth__06_1_1planner_1_1walker_1_1conditions_1_1SourceTypeConditionTest.html#a76f49325228f45cf50bf3de5d96ef616" target="_top" xlink:title=" ">
<polygon fill="white" stroke="#666666" points="549.5,-512 301.5,-512 301.5,-482 549.5,-482 549.5,-512"/>
<text text-anchor="start" x="309.5" y="-500" font-family="Helvetica,sans-Serif" font-size="10.00">com.teragrep.pth_06.planner.walker.conditions.</text>
<text text-anchor="middle" x="425.5" y="-489" font-family="Helvetica,sans-Serif" font-size="10.00">SourceTypeConditionTest.equalsTest</text>
</a>
</g>
</g>
<!-- Node22&#45;&gt;Node24 -->
<g id="edge23_Node000022_Node000024" class="edge">
<title>Node22&#45;&gt;Node24</title>
<g id="a_edge23_Node000022_Node000024"><a xlink:title=" ">
<path fill="none" stroke="#63b8ff" d="M719.61,-394.49C684.42,-417.24 623.97,-453.32 567,-473 557.06,-476.43 546.55,-479.39 535.93,-481.93"/>
<polygon fill="#63b8ff" stroke="#63b8ff" points="721.54,-397.42 728,-389.02 717.71,-391.56 721.54,-397.42"/>
</a>
</g>
</g>
<!-- Node25 -->
<g id="Node000025" class="node">
<title>Node25</title>
<g id="a_Node000025"><a xlink:href="classcom_1_1teragrep_1_1pth__06_1_1planner_1_1walker_1_1conditions_1_1SourceTypeConditionTest.html#a3236482704d05e3a1466e1c56ad4f3b8" target="_top" xlink:title=" ">
<polygon fill="white" stroke="#666666" points="549.5,-464 301.5,-464 301.5,-434 549.5,-434 549.5,-464"/>
<text text-anchor="start" x="309.5" y="-452" font-family="Helvetica,sans-Serif" font-size="10.00">com.teragrep.pth_06.planner.walker.conditions.</text>
<text text-anchor="middle" x="425.5" y="-441" font-family="Helvetica,sans-Serif" font-size="10.00">SourceTypeConditionTest.negationTest</text>
</a>
</g>
</g>
<!-- Node22&#45;&gt;Node25 -->
<g id="edge24_Node000022_Node000025" class="edge">
<title>Node22&#45;&gt;Node25</title>
<g id="a_edge24_Node000022_Node000025"><a xlink:title=" ">
<path fill="none" stroke="#63b8ff" d="M691.63,-391.91C655.88,-402.48 609.07,-415.57 567,-425 552.63,-428.22 537.35,-431.24 522.36,-433.98"/>
<polygon fill="#63b8ff" stroke="#63b8ff" points="692.82,-395.21 701.41,-389.01 690.83,-388.5 692.82,-395.21"/>
</a>
</g>
</g>
<!-- Node26 -->
<g id="Node000026" class="node">
<title>Node26</title>
<g id="a_Node000026"><a xlink:href="classcom_1_1teragrep_1_1pth__06_1_1planner_1_1walker_1_1conditions_1_1SourceTypeConditionTest.html#a9f2dc0472ec9279fdf91456dc29cd983" target="_top" xlink:title=" ">
<polygon fill="white" stroke="#666666" points="549.5,-416 301.5,-416 301.5,-386 549.5,-386 549.5,-416"/>
<text text-anchor="start" x="309.5" y="-404" font-family="Helvetica,sans-Serif" font-size="10.00">com.teragrep.pth_06.planner.walker.conditions.</text>
<text text-anchor="middle" x="425.5" y="-393" font-family="Helvetica,sans-Serif" font-size="10.00">SourceTypeConditionTest.testPartialWildcard</text>
</a>
</g>
</g>
<!-- Node22&#45;&gt;Node26 -->
<g id="edge25_Node000022_Node000026" class="edge">
<title>Node22&#45;&gt;Node26</title>
<g id="a_edge25_Node000022_Node000026"><a xlink:title=" ">
<path fill="none" stroke="#63b8ff" d="M616.64,-385.13C594.47,-386.98 571.56,-388.89 549.65,-390.72"/>
<polygon fill="#63b8ff" stroke="#63b8ff" points="617.1,-388.6 626.78,-384.28 616.52,-381.63 617.1,-388.6"/>
</a>
</g>
</g>
<!-- Node27 -->
<g id="Node000027" class="node">
<title>Node27</title>
<g id="a_Node000027"><a xlink:href="classcom_1_1teragrep_1_1pth__06_1_1planner_1_1walker_1_1conditions_1_1SourceTypeConditionTest.html#a087d6af1eb68621d0218ff09d7112615" target="_top" xlink:title=" ">
<polygon fill="white" stroke="#666666" points="549.5,-367.5 301.5,-367.5 301.5,-326.5 549.5,-326.5 549.5,-367.5"/>
<text text-anchor="start" x="309.5" y="-355.5" font-family="Helvetica,sans-Serif" font-size="10.00">com.teragrep.pth_06.planner.walker.conditions.</text>
<text text-anchor="start" x="309.5" y="-344.5" font-family="Helvetica,sans-Serif" font-size="10.00">SourceTypeConditionTest.testPartialWildcard</text>
<text text-anchor="middle" x="425.5" y="-333.5" font-family="Helvetica,sans-Serif" font-size="10.00">Negation</text>
</a>
</g>
</g>
<!-- Node22&#45;&gt;Node27 -->
<g id="edge26_Node000022_Node000027" class="edge">
<title>Node22&#45;&gt;Node27</title>
<g id="a_edge26_Node000022_Node000027"><a xlink:title=" ">
<path fill="none" stroke="#63b8ff" d="M616.64,-362.87C594.47,-361.02 571.56,-359.11 549.65,-357.28"/>
<polygon fill="#63b8ff" stroke="#63b8ff" points="616.52,-366.37 626.78,-363.72 617.1,-359.4 616.52,-366.37"/>
</a>
</g>
</g>
<!-- Node28 -->
<g id="Node000028" class="node">
<title>Node28</title>
<g id="a_Node000028"><a xlink:href="classcom_1_1teragrep_1_1pth__06_1_1planner_1_1walker_1_1conditions_1_1SourceTypeConditionTest.html#a130b0848f18b3c8c976cc421a14b030d" target="_top" xlink:title=" ">
<polygon fill="white" stroke="#666666" points="549.5,-308 301.5,-308 301.5,-278 549.5,-278 549.5,-308"/>
<text text-anchor="start" x="309.5" y="-296" font-family="Helvetica,sans-Serif" font-size="10.00">com.teragrep.pth_06.planner.walker.conditions.</text>
<text text-anchor="middle" x="425.5" y="-285" font-family="Helvetica,sans-Serif" font-size="10.00">SourceTypeConditionTest.wildcardAsTrueTest</text>
</a>
</g>
</g>
<!-- Node22&#45;&gt;Node28 -->
<g id="edge27_Node000022_Node000028" class="edge">
<title>Node22&#45;&gt;Node28</title>
<g id="a_edge27_Node000022_Node000028"><a xlink:title=" ">
<path fill="none" stroke="#63b8ff" d="M696.18,-355.65C659.97,-343.77 610.99,-328.6 567,-318 551.95,-314.37 535.87,-311.02 520.16,-308.04"/>
<polygon fill="#63b8ff" stroke="#63b8ff" points="695.45,-359.1 706.04,-358.91 697.64,-352.45 695.45,-359.1"/>
</a>
</g>
</g>
<!-- Node29 -->
<g id="Node000029" class="node">
<title>Node29</title>
<g id="a_Node000029"><a xlink:href="classcom_1_1teragrep_1_1pth__06_1_1planner_1_1walker_1_1conditions_1_1SourceTypeConditionTest.html#a74139121d37e0ac4f0d63ddc3d36e2de" target="_top" xlink:title=" ">
<polygon fill="white" stroke="#666666" points="567,-260 284,-260 284,-230 567,-230 567,-260"/>
<text text-anchor="start" x="292" y="-248" font-family="Helvetica,sans-Serif" font-size="10.00">com.teragrep.pth_06.planner.walker.conditions.</text>
<text text-anchor="middle" x="425.5" y="-237" font-family="Helvetica,sans-Serif" font-size="10.00">SourceTypeConditionTest.wildcardNegationAsFalseTest</text>
</a>
</g>
</g>
<!-- Node22&#45;&gt;Node29 -->
<g id="edge28_Node000022_Node000029" class="edge">
<title>Node22&#45;&gt;Node29</title>
<g id="a_edge28_Node000022_Node000029"><a xlink:title=" ">
<path fill="none" stroke="#63b8ff" d="M721.24,-353.19C686.47,-329.07 625.31,-289.96 567,-269 557.45,-265.57 547.36,-262.62 537.14,-260.09"/>
<polygon fill="#63b8ff" stroke="#63b8ff" points="719.3,-356.1 729.5,-358.98 723.32,-350.37 719.3,-356.1"/>
</a>
</g>
</g>
<!-- Node31 -->
<g id="Node000031" class="node">
<title>Node31</title>
<g id="a_Node000031"><a xlink:href="classcom_1_1teragrep_1_1pth__06_1_1planner_1_1walker_1_1conditions_1_1ElementCondition.html#a77e4bd928b9d9dd1e2ef3380f65e3ab7" target="_top" xlink:title=" ">
<polygon fill="white" stroke="#666666" points="549.5,-174 301.5,-174 301.5,-144 549.5,-144 549.5,-174"/>
<text text-anchor="start" x="309.5" y="-162" font-family="Helvetica,sans-Serif" font-size="10.00">com.teragrep.pth_06.planner.walker.conditions.</text>
<text text-anchor="middle" x="425.5" y="-151" font-family="Helvetica,sans-Serif" font-size="10.00">ElementCondition.condition</text>
</a>
</g>
</g>
<!-- Node30&#45;&gt;Node31 -->
<g id="edge30_Node000030_Node000031" class="edge">
<title>Node30&#45;&gt;Node31</title>
<g id="a_edge30_Node000030_Node000031"><a xlink:title=" ">
<path fill="none" stroke="#63b8ff" d="M616.64,-152.34C594.47,-152.2 571.56,-152.22 549.65,-152.42"/>
<polygon fill="#63b8ff" stroke="#63b8ff" points="616.75,-155.84 626.78,-152.42 616.8,-148.84 616.75,-155.84"/>
</a>
</g>
</g>
<!-- Node31&#45;&gt;Node30 -->
<g id="edge31_Node000031_Node000030" class="edge">
<title>Node31&#45;&gt;Node30</title>
<g id="a_edge31_Node000031_Node000030"><a xlink:title=" ">
<path fill="none" stroke="#63b8ff" d="M559.78,-165.66C581.95,-165.8 604.87,-165.78 626.78,-165.58"/>
<polygon fill="#63b8ff" stroke="#63b8ff" points="559.68,-162.16 549.65,-165.58 559.62,-169.16 559.68,-162.16"/>
</a>
</g>
</g>
<!-- Node31&#45;&gt;Node32 -->
<g id="edge32_Node000031_Node000032" class="edge">
<title>Node31&#45;&gt;Node32</title>
<g id="a_edge32_Node000031_Node000032"><a xlink:title=" ">
<path fill="none" stroke="#63b8ff" d="M291.41,-173.62C254.06,-179.44 215.31,-186.04 184.61,-191.93"/>
<polygon fill="#63b8ff" stroke="#63b8ff" points="292.04,-177.06 301.39,-172.08 290.97,-170.14 292.04,-177.06"/>
</a>
</g>
</g>
<!-- Node33 -->
<g id="Node000033" class="node">
<title>Node33</title>
<g id="a_Node000033"><a xlink:href="classcom_1_1teragrep_1_1pth__06_1_1planner_1_1walker_1_1conditions_1_1ElementConditionTest.html#aa7b824b2c1a077cb408c7e0532131e67" target="_top" xlink:title=" ">
<polygon fill="white" stroke="#666666" points="248,-174 0,-174 0,-144 248,-144 248,-174"/>
<text text-anchor="start" x="8" y="-162" font-family="Helvetica,sans-Serif" font-size="10.00">com.teragrep.pth_06.planner.walker.conditions.</text>
<text text-anchor="middle" x="124" y="-151" font-family="Helvetica,sans-Serif" font-size="10.00">ElementConditionTest.equalsTest</text>
</a>
</g>
</g>
<!-- Node31&#45;&gt;Node33 -->
<g id="edge34_Node000031_Node000033" class="edge">
<title>Node31&#45;&gt;Node33</title>
<g id="a_edge34_Node000031_Node000033"><a xlink:title=" ">
<path fill="none" stroke="#63b8ff" d="M291.03,-159C276.75,-159 262.27,-159 248.12,-159"/>
<polygon fill="#63b8ff" stroke="#63b8ff" points="291.39,-162.5 301.39,-159 291.39,-155.5 291.39,-162.5"/>
</a>
</g>
</g>
<!-- Node34 -->
<g id="Node000034" class="node">
<title>Node34</title>
<g id="a_Node000034"><a xlink:href="classcom_1_1teragrep_1_1pth__06_1_1planner_1_1walker_1_1conditions_1_1ElementConditionTest.html#afc3b6a3b2fe594a7c6df49f7ad3cb88a" target="_top" xlink:title=" ">
<polygon fill="white" stroke="#666666" points="248,-126 0,-126 0,-96 248,-96 248,-126"/>
<text text-anchor="start" x="8" y="-114" font-family="Helvetica,sans-Serif" font-size="10.00">com.teragrep.pth_06.planner.walker.conditions.</text>
<text text-anchor="middle" x="124" y="-103" font-family="Helvetica,sans-Serif" font-size="10.00">ElementConditionTest.testInvalidStreamTags</text>
</a>
</g>
</g>
<!-- Node31&#45;&gt;Node34 -->
<g id="edge35_Node000031_Node000034" class="edge">
<title>Node31&#45;&gt;Node34</title>
<g id="a_edge35_Node000031_Node000034"><a xlink:title=" ">
<path fill="none" stroke="#63b8ff" d="M320.4,-142.32C287.3,-137.01 250.92,-131.18 218.61,-126"/>
<polygon fill="#63b8ff" stroke="#63b8ff" points="320.13,-145.82 330.56,-143.94 321.24,-138.91 320.13,-145.82"/>
</a>
</g>
</g>
<!-- Node35 -->
<g id="Node000035" class="node">
<title>Node35</title>
<g id="a_Node000035"><a xlink:href="classcom_1_1teragrep_1_1pth__06_1_1planner_1_1walker_1_1conditions_1_1ElementConditionTest.html#a8128d1d936c645c93ebfc6f5fe4cdbe6" target="_top" xlink:title=" ">
<polygon fill="white" stroke="#666666" points="248,-78 0,-78 0,-48 248,-48 248,-78"/>
<text text-anchor="start" x="8" y="-66" font-family="Helvetica,sans-Serif" font-size="10.00">com.teragrep.pth_06.planner.walker.conditions.</text>
<text text-anchor="middle" x="124" y="-55" font-family="Helvetica,sans-Serif" font-size="10.00">ElementConditionTest.testStreamTags</text>
</a>
</g>
</g>
<!-- Node31&#45;&gt;Node35 -->
<g id="edge36_Node000031_Node000035" class="edge">
<title>Node31&#45;&gt;Node35</title>
<g id="a_edge36_Node000031_Node000035"><a xlink:title=" ">
<path fill="none" stroke="#63b8ff" d="M383.5,-139.61C348.24,-123.58 295.68,-101.23 248,-87 236.85,-83.67 224.98,-80.69 213.19,-78.05"/>
<polygon fill="#63b8ff" stroke="#63b8ff" points="382.42,-142.96 392.97,-143.95 385.34,-136.6 382.42,-142.96"/>
</a>
</g>
</g>
<!-- Node36 -->
<g id="Node000036" class="node">
<title>Node36</title>
<g id="a_Node000036"><a xlink:href="classcom_1_1teragrep_1_1pth__06_1_1planner_1_1walker_1_1conditions_1_1ElementConditionTest.html#aed3578cbc9f7e4f77695db0f1f45b40a" target="_top" xlink:title=" ">
<polygon fill="white" stroke="#666666" points="248,-30 0,-30 0,0 248,0 248,-30"/>
<text text-anchor="start" x="8" y="-18" font-family="Helvetica,sans-Serif" font-size="10.00">com.teragrep.pth_06.planner.walker.conditions.</text>
<text text-anchor="middle" x="124" y="-7" font-family="Helvetica,sans-Serif" font-size="10.00">ElementConditionTest.testTimeQualifiers</text>
</a>
</g>
</g>
<!-- Node31&#45;&gt;Node36 -->
<g id="edge37_Node000031_Node000036" class="edge">
<title>Node31&#45;&gt;Node36</title>
<g id="a_edge37_Node000031_Node000036"><a xlink:title=" ">
<path fill="none" stroke="#63b8ff" d="M399.71,-137.26C367.19,-109.96 307.28,-63.71 248,-39 239.77,-35.57 231.01,-32.62 222.12,-30.09"/>
<polygon fill="#63b8ff" stroke="#63b8ff" points="397.48,-139.96 407.37,-143.77 402.01,-134.63 397.48,-139.96"/>
</a>
</g>
</g>
<!-- Node32&#45;&gt;Node31 -->
<g id="edge33_Node000032_Node000031" class="edge">
<title>Node32&#45;&gt;Node31</title>
<g id="a_edge33_Node000032_Node000031"><a xlink:title=" ">
<path fill="none" stroke="#63b8ff" d="M258.16,-192.37C295.52,-186.55 334.28,-179.94 364.97,-174.06"/>
<polygon fill="#63b8ff" stroke="#63b8ff" points="257.53,-188.93 248.19,-193.91 258.6,-195.84 257.53,-188.93"/>
</a>
</g>
</g>
</g>
</svg>
