<?xml version="1.0" encoding="UTF-8" standalone="no"?>
<!DOCTYPE svg PUBLIC "-//W3C//DTD SVG 1.1//EN"
 "http://www.w3.org/Graphics/SVG/1.1/DTD/svg11.dtd">
<!-- Generated by graphviz version 2.43.0 (0)
 -->
<!-- Title: Graphical Class Hierarchy Pages: 1 -->
<svg width="485pt" height="326pt"
 viewBox="0.00 0.00 485.00 326.00" xmlns="http://www.w3.org/2000/svg" xmlns:xlink="http://www.w3.org/1999/xlink">
<g id="graph0" class="graph" transform="scale(1 1) rotate(0) translate(4 322)">
<title>Graphical Class Hierarchy</title>
<!-- Node0 -->
<g id="Node000000" class="node">
<title>Node0</title>
<g id="a_Node000000"><a xlink:title=" ">
<polygon fill="#e0e0e0" stroke="#999999" points="89,-264.5 33,-264.5 33,-245.5 89,-245.5 89,-264.5"/>
<text text-anchor="middle" x="61" y="-252.5" font-family="Helvetica,sans-Serif" font-size="10.00">Record2</text>
</a>
</g>
</g>
<!-- Node1 -->
<g id="Node000001" class="node">
<title>Node1</title>
<g id="a_Node000001"><a xlink:href="classcom_1_1teragrep_1_1pth__06_1_1jooq_1_1generated_1_1journaldb_1_1tables_1_1records_1_1BucketRecord.html" target="_top" xlink:title="Buckets in object storage.">
<polygon fill="white" stroke="#666666" points="476.5,-318 158.5,-318 158.5,-288 476.5,-288 476.5,-318"/>
<text text-anchor="start" x="166.5" y="-306" font-family="Helvetica,sans-Serif" font-size="10.00">com.teragrep.pth_06.jooq.generated.journaldb.tables.records.</text>
<text text-anchor="middle" x="317.5" y="-295" font-family="Helvetica,sans-Serif" font-size="10.00">BucketRecord</text>
</a>
</g>
</g>
<!-- Node0&#45;&gt;Node1 -->
<g id="edge74_Node000000_Node000001" class="edge">
<title>Node0&#45;&gt;Node1</title>
<g id="a_edge74_Node000000_Node000001"><a xlink:title=" ">
<path fill="none" stroke="#63b8ff" d="M99.11,-265.15C116.84,-269.77 138.43,-275.08 158,-279 174.1,-282.22 191.2,-285.24 207.98,-287.96"/>
<polygon fill="#63b8ff" stroke="#63b8ff" points="99.72,-261.69 89.16,-262.52 97.93,-268.46 99.72,-261.69"/>
</a>
</g>
</g>
<!-- Node5 -->
<g id="Node000005" class="node">
<title>Node5</title>
<g id="a_Node000005"><a xlink:href="classcom_1_1teragrep_1_1pth__06_1_1jooq_1_1generated_1_1journaldb_1_1tables_1_1records_1_1HostRecord.html" target="_top" xlink:title="Host names.">
<polygon fill="white" stroke="#666666" points="476.5,-270 158.5,-270 158.5,-240 476.5,-240 476.5,-270"/>
<text text-anchor="start" x="166.5" y="-258" font-family="Helvetica,sans-Serif" font-size="10.00">com.teragrep.pth_06.jooq.generated.journaldb.tables.records.</text>
<text text-anchor="middle" x="317.5" y="-247" font-family="Helvetica,sans-Serif" font-size="10.00">HostRecord</text>
</a>
</g>
</g>
<!-- Node0&#45;&gt;Node5 -->
<g id="edge75_Node000000_Node000005" class="edge">
<title>Node0&#45;&gt;Node5</title>
<g id="a_edge75_Node000000_Node000005"><a xlink:title=" ">
<path fill="none" stroke="#63b8ff" d="M99.46,-255C115.96,-255 136.58,-255 158.48,-255"/>
<polygon fill="#63b8ff" stroke="#63b8ff" points="99.24,-251.5 89.24,-255 99.24,-258.5 99.24,-251.5"/>
</a>
</g>
</g>
<!-- Node10 -->
<g id="Node000010" class="node">
<title>Node10</title>
<g id="a_Node000010"><a xlink:href="classcom_1_1teragrep_1_1pth__06_1_1jooq_1_1generated_1_1streamdb_1_1tables_1_1records_1_1LogGroupRecord.html" target="_top" xlink:title="This class is generated by jOOQ.">
<polygon fill="white" stroke="#666666" points="477,-222 158,-222 158,-192 477,-192 477,-222"/>
<text text-anchor="start" x="166" y="-210" font-family="Helvetica,sans-Serif" font-size="10.00">com.teragrep.pth_06.jooq.generated.streamdb.tables.records.</text>
<text text-anchor="middle" x="317.5" y="-199" font-family="Helvetica,sans-Serif" font-size="10.00">LogGroupRecord</text>
</a>
</g>
</g>
<!-- Node0&#45;&gt;Node10 -->
<g id="edge76_Node000000_Node000010" class="edge">
<title>Node0&#45;&gt;Node10</title>
<g id="a_edge76_Node000000_Node000010"><a xlink:title=" ">
<path fill="none" stroke="#63b8ff" d="M99.11,-244.85C116.84,-240.23 138.43,-234.92 158,-231 174.1,-227.78 191.2,-224.76 207.98,-222.04"/>
<polygon fill="#63b8ff" stroke="#63b8ff" points="97.93,-241.54 89.16,-247.48 99.72,-248.31 97.93,-241.54"/>
</a>
</g>
</g>
<!-- Node7 -->
<g id="Node000007" class="node">
<title>Node7</title>
<g id="a_Node000007"><a xlink:title=" ">
<polygon fill="#e0e0e0" stroke="#999999" points="92,-163.5 30,-163.5 30,-144.5 92,-144.5 92,-163.5"/>
<text text-anchor="middle" x="61" y="-151.5" font-family="Helvetica,sans-Serif" font-size="10.00">Record20</text>
</a>
</g>
</g>
<!-- Node6 -->
<g id="Node000006" class="node">
<title>Node6</title>
<g id="a_Node000006"><a xlink:href="classcom_1_1teragrep_1_1pth__06_1_1jooq_1_1generated_1_1journaldb_1_1tables_1_1records_1_1LogfileRecord.html" target="_top" xlink:title="Contains information for log files that have been run through Log Archiver.">
<polygon fill="white" stroke="#666666" points="476.5,-174 158.5,-174 158.5,-144 476.5,-144 476.5,-174"/>
<text text-anchor="start" x="166.5" y="-162" font-family="Helvetica,sans-Serif" font-size="10.00">com.teragrep.pth_06.jooq.generated.journaldb.tables.records.</text>
<text text-anchor="middle" x="317.5" y="-151" font-family="Helvetica,sans-Serif" font-size="10.00">LogfileRecord</text>
</a>
</g>
</g>
<!-- Node7&#45;&gt;Node6 -->
<g id="edge77_Node000007_Node000006" class="edge">
<title>Node7&#45;&gt;Node6</title>
<g id="a_edge77_Node000007_Node000006"><a xlink:title=" ">
<path fill="none" stroke="#63b8ff" d="M102.61,-154.8C118.49,-155.11 137.8,-155.49 158.24,-155.89"/>
<polygon fill="#63b8ff" stroke="#63b8ff" points="102.26,-151.29 92.19,-154.59 102.12,-158.29 102.26,-151.29"/>
</a>
</g>
</g>
<!-- Node9 -->
<g id="Node000009" class="node">
<title>Node9</title>
<g id="a_Node000009"><a xlink:title=" ">
<polygon fill="#e0e0e0" stroke="#999999" points="89,-120.5 33,-120.5 33,-101.5 89,-101.5 89,-120.5"/>
<text text-anchor="middle" x="61" y="-108.5" font-family="Helvetica,sans-Serif" font-size="10.00">Record3</text>
</a>
</g>
</g>
<!-- Node8 -->
<g id="Node000008" class="node">
<title>Node8</title>
<g id="a_Node000008"><a xlink:href="classcom_1_1teragrep_1_1pth__06_1_1jooq_1_1generated_1_1streamdb_1_1tables_1_1records_1_1HostRecord.html" target="_top" xlink:title="This class is generated by jOOQ.">
<polygon fill="white" stroke="#666666" points="477,-126 158,-126 158,-96 477,-96 477,-126"/>
<text text-anchor="start" x="166" y="-114" font-family="Helvetica,sans-Serif" font-size="10.00">com.teragrep.pth_06.jooq.generated.streamdb.tables.records.</text>
<text text-anchor="middle" x="317.5" y="-103" font-family="Helvetica,sans-Serif" font-size="10.00">HostRecord</text>
</a>
</g>
</g>
<!-- Node9&#45;&gt;Node8 -->
<g id="edge78_Node000009_Node000008" class="edge">
<title>Node9&#45;&gt;Node8</title>
<g id="a_edge78_Node000009_Node000008"><a xlink:title=" ">
<path fill="none" stroke="#63b8ff" d="M99.38,-111C115.75,-111 136.18,-111 157.9,-111"/>
<polygon fill="#63b8ff" stroke="#63b8ff" points="99.24,-107.5 89.24,-111 99.24,-114.5 99.24,-107.5"/>
</a>
</g>
</g>
<!-- Node4 -->
<g id="Node000004" class="node">
<title>Node4</title>
<g id="a_Node000004"><a xlink:title=" ">
<polygon fill="#e0e0e0" stroke="#999999" points="89,-72.5 33,-72.5 33,-53.5 89,-53.5 89,-72.5"/>
<text text-anchor="middle" x="61" y="-60.5" font-family="Helvetica,sans-Serif" font-size="10.00">Record4</text>
</a>
</g>
</g>
<!-- Node3 -->
<g id="Node000003" class="node">
<title>Node3</title>
<g id="a_Node000003"><a xlink:href="classcom_1_1teragrep_1_1pth__06_1_1jooq_1_1generated_1_1bloomdb_1_1tables_1_1records_1_1FiltertypeRecord.html" target="_top" xlink:title="This class is generated by jOOQ.">
<polygon fill="white" stroke="#666666" points="475,-78 160,-78 160,-48 475,-48 475,-78"/>
<text text-anchor="start" x="168" y="-66" font-family="Helvetica,sans-Serif" font-size="10.00">com.teragrep.pth_06.jooq.generated.bloomdb.tables.records.</text>
<text text-anchor="middle" x="317.5" y="-55" font-family="Helvetica,sans-Serif" font-size="10.00">FiltertypeRecord</text>
</a>
</g>
</g>
<!-- Node4&#45;&gt;Node3 -->
<g id="edge79_Node000004_Node000003" class="edge">
<title>Node4&#45;&gt;Node3</title>
<g id="a_edge79_Node000004_Node000003"><a xlink:title=" ">
<path fill="none" stroke="#63b8ff" d="M99.66,-63C116.49,-63 137.57,-63 159.93,-63"/>
<polygon fill="#63b8ff" stroke="#63b8ff" points="99.24,-59.5 89.24,-63 99.24,-66.5 99.24,-59.5"/>
</a>
</g>
</g>
<!-- Node12 -->
<g id="Node000012" class="node">
<title>Node12</title>
<g id="a_Node000012"><a xlink:title=" ">
<polygon fill="#e0e0e0" stroke="#999999" points="89,-24.5 33,-24.5 33,-5.5 89,-5.5 89,-24.5"/>
<text text-anchor="middle" x="61" y="-12.5" font-family="Helvetica,sans-Serif" font-size="10.00">Record5</text>
</a>
</g>
</g>
<!-- Node11 -->
<g id="Node000011" class="node">
<title>Node11</title>
<g id="a_Node000011"><a xlink:href="classcom_1_1teragrep_1_1pth__06_1_1jooq_1_1generated_1_1streamdb_1_1tables_1_1records_1_1StreamRecord.html" target="_top" xlink:title="This class is generated by jOOQ.">
<polygon fill="white" stroke="#666666" points="477,-30 158,-30 158,0 477,0 477,-30"/>
<text text-anchor="start" x="166" y="-18" font-family="Helvetica,sans-Serif" font-size="10.00">com.teragrep.pth_06.jooq.generated.streamdb.tables.records.</text>
<text text-anchor="middle" x="317.5" y="-7" font-family="Helvetica,sans-Serif" font-size="10.00">StreamRecord</text>
</a>
</g>
</g>
<!-- Node12&#45;&gt;Node11 -->
<g id="edge80_Node000012_Node000011" class="edge">
<title>Node12&#45;&gt;Node11</title>
<g id="a_edge80_Node000012_Node000011"><a xlink:title=" ">
<path fill="none" stroke="#63b8ff" d="M99.38,-15C115.75,-15 136.18,-15 157.9,-15"/>
<polygon fill="#63b8ff" stroke="#63b8ff" points="99.24,-11.5 89.24,-15 99.24,-18.5 99.24,-11.5"/>
</a>
</g>
</g>
<!-- Node2 -->
<g id="Node000002" class="node">
<title>Node2</title>
<g id="a_Node000002"><a xlink:title=" ">
<polygon fill="#e0e0e0" stroke="#999999" points="122,-200.5 0,-200.5 0,-181.5 122,-181.5 122,-200.5"/>
<text text-anchor="middle" x="61" y="-188.5" font-family="Helvetica,sans-Serif" font-size="10.00">UpdatableRecordImpl</text>
</a>
</g>
</g>
<!-- Node2&#45;&gt;Node1 -->
<g id="edge82_Node000002_Node000001" class="edge">
<title>Node2&#45;&gt;Node1</title>
<g id="a_edge82_Node000002_Node000001"><a xlink:title=" ">
<path fill="none" stroke="#63b8ff" d="M84.8,-206.75C96.4,-215.18 110.46,-226.07 122,-237 139.85,-253.9 136.5,-267.08 158,-279 164.09,-282.37 170.49,-285.32 177.1,-287.88"/>
<polygon fill="#63b8ff" stroke="#63b8ff" points="86.66,-203.78 76.49,-200.82 82.59,-209.47 86.66,-203.78"/>
</a>
</g>
</g>
<!-- Node2&#45;&gt;Node5 -->
<g id="edge83_Node000002_Node000005" class="edge">
<title>Node2&#45;&gt;Node5</title>
<g id="a_edge83_Node000002_Node000005"><a xlink:title=" ">
<path fill="none" stroke="#63b8ff" d="M90.17,-204.89C108.96,-213.61 134.46,-224.42 158,-231 170.2,-234.41 183.06,-237.36 195.98,-239.92"/>
<polygon fill="#63b8ff" stroke="#63b8ff" points="91.53,-201.66 80.99,-200.55 88.54,-207.99 91.53,-201.66"/>
</a>
</g>
</g>
<!-- Node2&#45;&gt;Node10 -->
<g id="edge86_Node000002_Node000010" class="edge">
<title>Node2&#45;&gt;Node10</title>
<g id="a_edge86_Node000002_Node000010"><a xlink:title=" ">
<path fill="none" stroke="#63b8ff" d="M132.37,-195.42C140.48,-195.93 148.98,-196.47 157.69,-197.02"/>
<polygon fill="#63b8ff" stroke="#63b8ff" points="132.51,-191.93 122.31,-194.79 132.07,-198.91 132.51,-191.93"/>
</a>
</g>
</g>
<!-- Node2&#45;&gt;Node6 -->
<g id="edge84_Node000002_Node000006" class="edge">
<title>Node2&#45;&gt;Node6</title>
<g id="a_edge84_Node000002_Node000006"><a xlink:title=" ">
<path fill="none" stroke="#63b8ff" d="M132.3,-182.16C152.42,-179.63 174.94,-176.8 197.14,-174.01"/>
<polygon fill="#63b8ff" stroke="#63b8ff" points="131.8,-178.7 122.31,-183.42 132.67,-185.64 131.8,-178.7"/>
</a>
</g>
</g>
<!-- Node2&#45;&gt;Node8 -->
<g id="edge85_Node000002_Node000008" class="edge">
<title>Node2&#45;&gt;Node8</title>
<g id="a_edge85_Node000002_Node000008"><a xlink:title=" ">
<path fill="none" stroke="#63b8ff" d="M113.66,-177.48C116.55,-176.12 119.35,-174.63 122,-173 141.81,-160.8 137.38,-145.77 158,-135 164.54,-131.59 171.42,-128.62 178.51,-126.05"/>
<polygon fill="#63b8ff" stroke="#63b8ff" points="112.1,-174.34 104.2,-181.4 114.78,-180.81 112.1,-174.34"/>
</a>
</g>
</g>
<!-- Node2&#45;&gt;Node3 -->
<g id="edge81_Node000002_Node000003" class="edge">
<title>Node2&#45;&gt;Node3</title>
<g id="a_edge81_Node000002_Node000003"><a xlink:title=" ">
<path fill="none" stroke="#63b8ff" d="M117.87,-176.3C119.31,-175.27 120.69,-174.18 122,-173 152.8,-145.28 125.32,-112.48 158,-87 162.28,-83.66 166.83,-80.69 171.58,-78.06"/>
<polygon fill="#63b8ff" stroke="#63b8ff" points="115.95,-173.37 109.08,-181.44 119.48,-179.42 115.95,-173.37"/>
</a>
</g>
</g>
<!-- Node2&#45;&gt;Node11 -->
<g id="edge87_Node000002_Node000011" class="edge">
<title>Node2&#45;&gt;Node11</title>
<g id="a_edge87_Node000002_Node000011"><a xlink:title=" ">
<path fill="none" stroke="#63b8ff" d="M119.05,-175.74C120.07,-174.88 121.06,-173.97 122,-173 164.97,-128.77 112.02,-80.09 158,-39 161.74,-35.66 165.73,-32.67 169.93,-30.01"/>
<polygon fill="#63b8ff" stroke="#63b8ff" points="116.82,-173.02 110.43,-181.47 120.7,-178.85 116.82,-173.02"/>
</a>
</g>
</g>
</g>
</svg>
