<?xml version="1.0" encoding="UTF-8" standalone="no"?>
<!DOCTYPE svg PUBLIC "-//W3C//DTD SVG 1.1//EN"
 "http://www.w3.org/Graphics/SVG/1.1/DTD/svg11.dtd">
<!-- Generated by graphviz version 2.43.0 (0)
 -->
<!-- Title: com.teragrep.pth_06.jooq.generated.journaldb.tables.records.LogfileRecord Pages: 1 -->
<svg width="528pt" height="142pt"
 viewBox="0.00 0.00 528.00 141.50" xmlns="http://www.w3.org/2000/svg" xmlns:xlink="http://www.w3.org/1999/xlink">
<g id="graph0" class="graph" transform="scale(1 1) rotate(0) translate(4 137.5)">
<title>com.teragrep.pth_06.jooq.generated.journaldb.tables.records.LogfileRecord</title>
<!-- Node1 -->
<g id="Node000001" class="node">
<title>Node1</title>
<g id="a_Node000001"><a xlink:title="Contains information for log files that have been run through Log Archiver.">
<polygon fill="#999999" stroke="#666666" points="520,-95.5 202,-95.5 202,-65.5 520,-65.5 520,-95.5"/>
<text text-anchor="start" x="210" y="-83.5" font-family="Helvetica,sans-Serif" font-size="10.00">com.teragrep.pth_06.jooq.generated.journaldb.tables.records.</text>
<text text-anchor="middle" x="361" y="-72.5" font-family="Helvetica,sans-Serif" font-size="10.00">LogfileRecord</text>
</a>
</g>
</g>
<!-- Node2 -->
<g id="Node000002" class="node">
<title>Node2</title>
<g id="a_Node000002"><a xlink:title=" ">
<polygon fill="white" stroke="#666666" points="144,-133.5 22,-133.5 22,-103.5 144,-103.5 144,-133.5"/>
<text text-anchor="start" x="30" y="-121.5" font-family="Helvetica,sans-Serif" font-size="10.00">UpdatableRecordImpl</text>
<text text-anchor="middle" x="83" y="-110.5" font-family="Helvetica,sans-Serif" font-size="10.00">&lt; LogfileRecord &gt;</text>
</a>
</g>
</g>
<!-- Node2&#45;&gt;Node1 -->
<g id="edge1_Node000001_Node000002" class="edge">
<title>Node2&#45;&gt;Node1</title>
<g id="a_edge1_Node000001_Node000002"><a xlink:title=" ">
<path fill="none" stroke="#63b8ff" d="M154.37,-108.81C183.7,-104.77 218.45,-99.99 250.96,-95.51"/>
<polygon fill="#63b8ff" stroke="#63b8ff" points="153.66,-105.38 144.23,-110.21 154.61,-112.31 153.66,-105.38"/>
</a>
</g>
</g>
<!-- Node3 -->
<g id="Node000003" class="node">
<title>Node3</title>
<g id="a_Node000003"><a xlink:title=" ">
<polygon fill="white" stroke="#666666" points="166,-85 0,-85 0,0 166,0 166,-85"/>
<text text-anchor="start" x="8" y="-73" font-family="Helvetica,sans-Serif" font-size="10.00">Record21&lt; ULong, Date,</text>
<text text-anchor="start" x="8" y="-62" font-family="Helvetica,sans-Serif" font-size="10.00"> Date, UShort, String,</text>
<text text-anchor="start" x="8" y="-51" font-family="Helvetica,sans-Serif" font-size="10.00"> String, UShort, String,</text>
<text text-anchor="start" x="8" y="-40" font-family="Helvetica,sans-Serif" font-size="10.00"> Timestamp, ULong, String,</text>
<text text-anchor="start" x="8" y="-29" font-family="Helvetica,sans-Serif" font-size="10.00"> String, UShort, UShort, ULong,</text>
<text text-anchor="start" x="8" y="-18" font-family="Helvetica,sans-Serif" font-size="10.00"> ULong, ULong, ULong, ULong,</text>
<text text-anchor="middle" x="83" y="-7" font-family="Helvetica,sans-Serif" font-size="10.00"> ULong, ULong &gt;</text>
</a>
</g>
</g>
<!-- Node3&#45;&gt;Node1 -->
<g id="edge2_Node000001_Node000003" class="edge">
<title>Node3&#45;&gt;Node1</title>
<g id="a_edge2_Node000001_Node000003"><a xlink:title=" ">
<path fill="none" stroke="#63b8ff" d="M176.19,-55.19C200.14,-58.49 226.17,-62.07 250.9,-65.48"/>
<polygon fill="#63b8ff" stroke="#63b8ff" points="176.45,-51.7 166.06,-53.8 175.49,-58.63 176.45,-51.7"/>
</a>
</g>
</g>
</g>
</svg>
