<?xml version="1.0" encoding="UTF-8" standalone="no"?>
<!DOCTYPE svg PUBLIC "-//W3C//DTD SVG 1.1//EN"
 "http://www.w3.org/Graphics/SVG/1.1/DTD/svg11.dtd">
<!-- Generated by graphviz version 2.43.0 (0)
 -->
<!-- Title: Graphical Class Hierarchy Pages: 1 -->
<svg width="485pt" height="374pt"
 viewBox="0.00 0.00 485.00 374.00" xmlns="http://www.w3.org/2000/svg" xmlns:xlink="http://www.w3.org/1999/xlink">
<g id="graph0" class="graph" transform="scale(1 1) rotate(0) translate(4 370)">
<title>Graphical Class Hierarchy</title>
<!-- Node0 -->
<g id="Node000000" class="node">
<title>Node0</title>
<g id="a_Node000000"><a xlink:title=" ">
<polygon fill="#e0e0e0" stroke="#999999" points="92,-360.5 30,-360.5 30,-341.5 92,-341.5 92,-360.5"/>
<text text-anchor="middle" x="61" y="-348.5" font-family="Helvetica,sans-Serif" font-size="10.00">Record19</text>
</a>
</g>
</g>
<!-- Node1 -->
<g id="Node000001" class="node">
<title>Node1</title>
<g id="a_Node000001"><a xlink:href="classcom_1_1teragrep_1_1pth__06_1_1jooq_1_1generated_1_1journaldb_1_1tables_1_1records_1_1LogfileRecord.html" target="_top" xlink:title="Contains information for log files that have been run through Log Archiver.">
<polygon fill="white" stroke="#666666" points="476.5,-366 158.5,-366 158.5,-336 476.5,-336 476.5,-366"/>
<text text-anchor="start" x="166.5" y="-354" font-family="Helvetica,sans-Serif" font-size="10.00">com.teragrep.pth_06.jooq.generated.journaldb.tables.records.</text>
<text text-anchor="middle" x="317.5" y="-343" font-family="Helvetica,sans-Serif" font-size="10.00">LogfileRecord</text>
</a>
</g>
</g>
<!-- Node0&#45;&gt;Node1 -->
<g id="edge76_Node000000_Node000001" class="edge">
<title>Node0&#45;&gt;Node1</title>
<g id="a_edge76_Node000000_Node000001"><a xlink:title=" ">
<path fill="none" stroke="#63b8ff" d="M102.61,-351C118.49,-351 137.8,-351 158.24,-351"/>
<polygon fill="#63b8ff" stroke="#63b8ff" points="102.19,-347.5 92.19,-351 102.19,-354.5 102.19,-347.5"/>
</a>
</g>
</g>
<!-- Node6 -->
<g id="Node000006" class="node">
<title>Node6</title>
<g id="a_Node000006"><a xlink:title=" ">
<polygon fill="#e0e0e0" stroke="#999999" points="89,-259.5 33,-259.5 33,-240.5 89,-240.5 89,-259.5"/>
<text text-anchor="middle" x="61" y="-247.5" font-family="Helvetica,sans-Serif" font-size="10.00">Record2</text>
</a>
</g>
</g>
<!-- Node5 -->
<g id="Node000005" class="node">
<title>Node5</title>
<g id="a_Node000005"><a xlink:href="classcom_1_1teragrep_1_1pth__06_1_1jooq_1_1generated_1_1journaldb_1_1tables_1_1records_1_1BucketRecord.html" target="_top" xlink:title="Buckets in object storage.">
<polygon fill="white" stroke="#666666" points="476.5,-222 158.5,-222 158.5,-192 476.5,-192 476.5,-222"/>
<text text-anchor="start" x="166.5" y="-210" font-family="Helvetica,sans-Serif" font-size="10.00">com.teragrep.pth_06.jooq.generated.journaldb.tables.records.</text>
<text text-anchor="middle" x="317.5" y="-199" font-family="Helvetica,sans-Serif" font-size="10.00">BucketRecord</text>
</a>
</g>
</g>
<!-- Node6&#45;&gt;Node5 -->
<g id="edge77_Node000006_Node000005" class="edge">
<title>Node6&#45;&gt;Node5</title>
<g id="a_edge77_Node000006_Node000005"><a xlink:title=" ">
<path fill="none" stroke="#63b8ff" d="M99.22,-242.23C116.98,-238.62 138.55,-234.4 158,-231 175.68,-227.91 194.52,-224.86 212.8,-222.01"/>
<polygon fill="#63b8ff" stroke="#63b8ff" points="98.35,-238.83 89.25,-244.27 99.75,-245.69 98.35,-238.83"/>
</a>
</g>
</g>
<!-- Node7 -->
<g id="Node000007" class="node">
<title>Node7</title>
<g id="a_Node000007"><a xlink:href="classcom_1_1teragrep_1_1pth__06_1_1jooq_1_1generated_1_1journaldb_1_1tables_1_1records_1_1HostRecord.html" target="_top" xlink:title="Host names.">
<polygon fill="white" stroke="#666666" points="476.5,-174 158.5,-174 158.5,-144 476.5,-144 476.5,-174"/>
<text text-anchor="start" x="166.5" y="-162" font-family="Helvetica,sans-Serif" font-size="10.00">com.teragrep.pth_06.jooq.generated.journaldb.tables.records.</text>
<text text-anchor="middle" x="317.5" y="-151" font-family="Helvetica,sans-Serif" font-size="10.00">HostRecord</text>
</a>
</g>
</g>
<!-- Node6&#45;&gt;Node7 -->
<g id="edge78_Node000006_Node000007" class="edge">
<title>Node6&#45;&gt;Node7</title>
<g id="a_edge78_Node000006_Node000007"><a xlink:title=" ">
<path fill="none" stroke="#63b8ff" d="M79.78,-233.76C98.01,-218.09 127.88,-195.02 158,-183 166.66,-179.54 175.77,-176.58 185.06,-174.04"/>
<polygon fill="#63b8ff" stroke="#63b8ff" points="77.46,-231.14 72.27,-240.37 82.09,-236.39 77.46,-231.14"/>
</a>
</g>
</g>
<!-- Node8 -->
<g id="Node000008" class="node">
<title>Node8</title>
<g id="a_Node000008"><a xlink:href="classcom_1_1teragrep_1_1pth__06_1_1jooq_1_1generated_1_1journaldb_1_1tables_1_1records_1_1LogtagRecord.html" target="_top" xlink:title="Contains logtag values that are identified using the ID.">
<polygon fill="white" stroke="#666666" points="476.5,-318 158.5,-318 158.5,-288 476.5,-288 476.5,-318"/>
<text text-anchor="start" x="166.5" y="-306" font-family="Helvetica,sans-Serif" font-size="10.00">com.teragrep.pth_06.jooq.generated.journaldb.tables.records.</text>
<text text-anchor="middle" x="317.5" y="-295" font-family="Helvetica,sans-Serif" font-size="10.00">LogtagRecord</text>
</a>
</g>
</g>
<!-- Node6&#45;&gt;Node8 -->
<g id="edge79_Node000006_Node000008" class="edge">
<title>Node6&#45;&gt;Node8</title>
<g id="a_edge79_Node000006_Node000008"><a xlink:title=" ">
<path fill="none" stroke="#63b8ff" d="M98.96,-262.52C116.67,-268.16 138.27,-274.55 158,-279 172.66,-282.31 188.19,-285.29 203.57,-287.93"/>
<polygon fill="#63b8ff" stroke="#63b8ff" points="99.63,-259.05 89.03,-259.3 97.47,-265.71 99.63,-259.05"/>
</a>
</g>
</g>
<!-- Node9 -->
<g id="Node000009" class="node">
<title>Node9</title>
<g id="a_Node000009"><a xlink:href="classcom_1_1teragrep_1_1pth__06_1_1jooq_1_1generated_1_1streamdb_1_1tables_1_1records_1_1LogGroupRecord.html" target="_top" xlink:title="This class is generated by jOOQ.">
<polygon fill="white" stroke="#666666" points="477,-270 158,-270 158,-240 477,-240 477,-270"/>
<text text-anchor="start" x="166" y="-258" font-family="Helvetica,sans-Serif" font-size="10.00">com.teragrep.pth_06.jooq.generated.streamdb.tables.records.</text>
<text text-anchor="middle" x="317.5" y="-247" font-family="Helvetica,sans-Serif" font-size="10.00">LogGroupRecord</text>
</a>
</g>
</g>
<!-- Node6&#45;&gt;Node9 -->
<g id="edge80_Node000006_Node000009" class="edge">
<title>Node6&#45;&gt;Node9</title>
<g id="a_edge80_Node000006_Node000009"><a xlink:title=" ">
<path fill="none" stroke="#63b8ff" d="M99.38,-250.73C115.75,-251.06 136.18,-251.46 157.9,-251.88"/>
<polygon fill="#63b8ff" stroke="#63b8ff" points="99.3,-247.23 89.24,-250.54 99.17,-254.23 99.3,-247.23"/>
</a>
</g>
</g>
<!-- Node11 -->
<g id="Node000011" class="node">
<title>Node11</title>
<g id="a_Node000011"><a xlink:title=" ">
<polygon fill="#e0e0e0" stroke="#999999" points="89,-120.5 33,-120.5 33,-101.5 89,-101.5 89,-120.5"/>
<text text-anchor="middle" x="61" y="-108.5" font-family="Helvetica,sans-Serif" font-size="10.00">Record3</text>
</a>
</g>
</g>
<!-- Node10 -->
<g id="Node000010" class="node">
<title>Node10</title>
<g id="a_Node000010"><a xlink:href="classcom_1_1teragrep_1_1pth__06_1_1jooq_1_1generated_1_1streamdb_1_1tables_1_1records_1_1HostRecord.html" target="_top" xlink:title="This class is generated by jOOQ.">
<polygon fill="white" stroke="#666666" points="477,-126 158,-126 158,-96 477,-96 477,-126"/>
<text text-anchor="start" x="166" y="-114" font-family="Helvetica,sans-Serif" font-size="10.00">com.teragrep.pth_06.jooq.generated.streamdb.tables.records.</text>
<text text-anchor="middle" x="317.5" y="-103" font-family="Helvetica,sans-Serif" font-size="10.00">HostRecord</text>
</a>
</g>
</g>
<!-- Node11&#45;&gt;Node10 -->
<g id="edge81_Node000011_Node000010" class="edge">
<title>Node11&#45;&gt;Node10</title>
<g id="a_edge81_Node000011_Node000010"><a xlink:title=" ">
<path fill="none" stroke="#63b8ff" d="M99.38,-111C115.75,-111 136.18,-111 157.9,-111"/>
<polygon fill="#63b8ff" stroke="#63b8ff" points="99.24,-107.5 89.24,-111 99.24,-114.5 99.24,-107.5"/>
</a>
</g>
</g>
<!-- Node4 -->
<g id="Node000004" class="node">
<title>Node4</title>
<g id="a_Node000004"><a xlink:title=" ">
<polygon fill="#e0e0e0" stroke="#999999" points="89,-72.5 33,-72.5 33,-53.5 89,-53.5 89,-72.5"/>
<text text-anchor="middle" x="61" y="-60.5" font-family="Helvetica,sans-Serif" font-size="10.00">Record4</text>
</a>
</g>
</g>
<!-- Node3 -->
<g id="Node000003" class="node">
<title>Node3</title>
<g id="a_Node000003"><a xlink:href="classcom_1_1teragrep_1_1pth__06_1_1jooq_1_1generated_1_1bloomdb_1_1tables_1_1records_1_1FiltertypeRecord.html" target="_top" xlink:title="This class is generated by jOOQ.">
<polygon fill="white" stroke="#666666" points="475,-78 160,-78 160,-48 475,-48 475,-78"/>
<text text-anchor="start" x="168" y="-66" font-family="Helvetica,sans-Serif" font-size="10.00">com.teragrep.pth_06.jooq.generated.bloomdb.tables.records.</text>
<text text-anchor="middle" x="317.5" y="-55" font-family="Helvetica,sans-Serif" font-size="10.00">FiltertypeRecord</text>
</a>
</g>
</g>
<!-- Node4&#45;&gt;Node3 -->
<g id="edge82_Node000004_Node000003" class="edge">
<title>Node4&#45;&gt;Node3</title>
<g id="a_edge82_Node000004_Node000003"><a xlink:title=" ">
<path fill="none" stroke="#63b8ff" d="M99.66,-63C116.49,-63 137.57,-63 159.93,-63"/>
<polygon fill="#63b8ff" stroke="#63b8ff" points="99.24,-59.5 89.24,-63 99.24,-66.5 99.24,-59.5"/>
</a>
</g>
</g>
<!-- Node13 -->
<g id="Node000013" class="node">
<title>Node13</title>
<g id="a_Node000013"><a xlink:title=" ">
<polygon fill="#e0e0e0" stroke="#999999" points="89,-24.5 33,-24.5 33,-5.5 89,-5.5 89,-24.5"/>
<text text-anchor="middle" x="61" y="-12.5" font-family="Helvetica,sans-Serif" font-size="10.00">Record5</text>
</a>
</g>
</g>
<!-- Node12 -->
<g id="Node000012" class="node">
<title>Node12</title>
<g id="a_Node000012"><a xlink:href="classcom_1_1teragrep_1_1pth__06_1_1jooq_1_1generated_1_1streamdb_1_1tables_1_1records_1_1StreamRecord.html" target="_top" xlink:title="This class is generated by jOOQ.">
<polygon fill="white" stroke="#666666" points="477,-30 158,-30 158,0 477,0 477,-30"/>
<text text-anchor="start" x="166" y="-18" font-family="Helvetica,sans-Serif" font-size="10.00">com.teragrep.pth_06.jooq.generated.streamdb.tables.records.</text>
<text text-anchor="middle" x="317.5" y="-7" font-family="Helvetica,sans-Serif" font-size="10.00">StreamRecord</text>
</a>
</g>
</g>
<!-- Node13&#45;&gt;Node12 -->
<g id="edge83_Node000013_Node000012" class="edge">
<title>Node13&#45;&gt;Node12</title>
<g id="a_edge83_Node000013_Node000012"><a xlink:title=" ">
<path fill="none" stroke="#63b8ff" d="M99.38,-15C115.75,-15 136.18,-15 157.9,-15"/>
<polygon fill="#63b8ff" stroke="#63b8ff" points="99.24,-11.5 89.24,-15 99.24,-18.5 99.24,-11.5"/>
</a>
</g>
</g>
<!-- Node2 -->
<g id="Node000002" class="node">
<title>Node2</title>
<g id="a_Node000002"><a xlink:title=" ">
<polygon fill="#e0e0e0" stroke="#999999" points="122,-192.5 0,-192.5 0,-173.5 122,-173.5 122,-192.5"/>
<text text-anchor="middle" x="61" y="-180.5" font-family="Helvetica,sans-Serif" font-size="10.00">UpdatableRecordImpl</text>
</a>
</g>
</g>
<!-- Node2&#45;&gt;Node1 -->
<g id="edge87_Node000002_Node000001" class="edge">
<title>Node2&#45;&gt;Node1</title>
<g id="a_edge87_Node000002_Node000001"><a xlink:title=" ">
<path fill="none" stroke="#63b8ff" d="M86.37,-198.38C98.45,-207.03 112.45,-218.74 122,-232 148.39,-268.64 122.87,-298.63 158,-327 162.11,-330.32 166.49,-333.28 171.07,-335.92"/>
<polygon fill="#63b8ff" stroke="#63b8ff" points="88.24,-195.42 78.01,-192.65 84.28,-201.19 88.24,-195.42"/>
</a>
</g>
</g>
<!-- Node2&#45;&gt;Node5 -->
<g id="edge85_Node000002_Node000005" class="edge">
<title>Node2&#45;&gt;Node5</title>
<g id="a_edge85_Node000002_Node000005"><a xlink:title=" ">
<path fill="none" stroke="#63b8ff" d="M132.5,-189.65C140.73,-190.42 149.35,-191.24 158.18,-192.07"/>
<polygon fill="#63b8ff" stroke="#63b8ff" points="132.6,-186.14 122.31,-188.69 131.94,-193.11 132.6,-186.14"/>
</a>
</g>
</g>
<!-- Node2&#45;&gt;Node7 -->
<g id="edge86_Node000002_Node000007" class="edge">
<title>Node2&#45;&gt;Node7</title>
<g id="a_edge86_Node000002_Node000007"><a xlink:title=" ">
<path fill="none" stroke="#63b8ff" d="M132.5,-176.35C140.73,-175.58 149.35,-174.76 158.18,-173.93"/>
<polygon fill="#63b8ff" stroke="#63b8ff" points="131.94,-172.89 122.31,-177.31 132.6,-179.86 131.94,-172.89"/>
</a>
</g>
</g>
<!-- Node2&#45;&gt;Node8 -->
<g id="edge88_Node000002_Node000008" class="edge">
<title>Node2&#45;&gt;Node8</title>
<g id="a_edge88_Node000002_Node000008"><a xlink:title=" ">
<path fill="none" stroke="#63b8ff" d="M83.71,-198.76C95.6,-207.86 110.25,-219.88 122,-232 140.31,-250.89 135.35,-265.61 158,-279 163.75,-282.4 169.82,-285.37 176.09,-287.97"/>
<polygon fill="#63b8ff" stroke="#63b8ff" points="85.73,-195.9 75.63,-192.69 81.52,-201.5 85.73,-195.9"/>
</a>
</g>
</g>
<!-- Node2&#45;&gt;Node9 -->
<g id="edge90_Node000002_Node000009" class="edge">
<title>Node2&#45;&gt;Node9</title>
<g id="a_edge90_Node000002_Node000009"><a xlink:title=" ">
<path fill="none" stroke="#63b8ff" d="M86.13,-197.74C105.03,-208.6 132.32,-222.86 158,-231 168.88,-234.45 180.34,-237.41 191.91,-239.95"/>
<polygon fill="#63b8ff" stroke="#63b8ff" points="87.72,-194.61 77.33,-192.57 84.18,-200.65 87.72,-194.61"/>
</a>
</g>
</g>
<!-- Node2&#45;&gt;Node10 -->
<g id="edge89_Node000002_Node000010" class="edge">
<title>Node2&#45;&gt;Node10</title>
<g id="a_edge89_Node000002_Node000010"><a xlink:title=" ">
<path fill="none" stroke="#63b8ff" d="M86.13,-168.26C105.03,-157.4 132.32,-143.14 158,-135 168.88,-131.55 180.34,-128.59 191.91,-126.05"/>
<polygon fill="#63b8ff" stroke="#63b8ff" points="84.18,-165.35 77.33,-173.43 87.72,-171.39 84.18,-165.35"/>
</a>
</g>
</g>
<!-- Node2&#45;&gt;Node3 -->
<g id="edge84_Node000002_Node000003" class="edge">
<title>Node2&#45;&gt;Node3</title>
<g id="a_edge84_Node000002_Node000003"><a xlink:title=" ">
<path fill="none" stroke="#63b8ff" d="M81.69,-166.91C93.74,-156.75 109.24,-143.11 122,-130 139.39,-112.14 136.27,-99.21 158,-87 164.07,-83.59 170.46,-80.62 177.06,-78.03"/>
<polygon fill="#63b8ff" stroke="#63b8ff" points="79.42,-164.24 73.97,-173.33 83.9,-169.62 79.42,-164.24"/>
</a>
</g>
</g>
<!-- Node2&#45;&gt;Node12 -->
<g id="edge91_Node000002_Node000012" class="edge">
<title>Node2&#45;&gt;Node12</title>
<g id="a_edge91_Node000002_Node000012"><a xlink:title=" ">
<path fill="none" stroke="#63b8ff" d="M84.46,-167.32C96.88,-157.72 111.81,-144.51 122,-130 146.99,-94.4 123.97,-66.08 158,-39 162.14,-35.71 166.53,-32.77 171.13,-30.16"/>
<polygon fill="#63b8ff" stroke="#63b8ff" points="82.28,-164.58 76.35,-173.36 86.46,-170.2 82.28,-164.58"/>
</a>
</g>
</g>
</g>
</svg>
